<svg width="32" height="32" viewBox="0 0 32 32" fill="none" xmlns="http://www.w3.org/2000/svg">
<g clip-path="url(#clip0_2005_1346)">
<path d="M0 0H32V32H0V0Z" fill="#19AA1E"/>
<path fill-rule="evenodd" clip-rule="evenodd" d="M0 0H32V10.4989L0 5.49962V0Z" fill="#FFB919"/>
<path fill-rule="evenodd" clip-rule="evenodd" d="M-0.00012207 28.4988L31.9999 23.4995V31.9991H-0.00012207V28.4988Z" fill="#82D714"/>
<path fill-rule="evenodd" clip-rule="evenodd" d="M-0.00012207 4.86749L11.1698 6.61279C12.5602 5.73238 14.2143 5.24952 15.9994 5.24952C18.4719 5.24952 20.6942 6.17549 22.3115 7.80056C22.5152 8.00612 22.7071 8.2204 22.8885 8.44341L31.9999 9.8668V11.1321L23.8135 9.85225C24.4262 11.0236 24.7471 12.3254 24.7491 13.6473C24.7491 15.3616 24.3661 17.071 23.573 18.7872L23.5497 18.8396L23.2123 19.5609H22.4172C20.7728 19.5609 19.6829 20.0525 18.9693 20.9242C18.4098 21.6078 18.086 22.5309 17.9774 23.5373L17.9735 23.5683L17.958 23.7293L17.9512 23.7991L17.9376 23.9358C17.8959 24.3857 17.8688 24.7668 17.8543 25.077L31.9999 22.8663V24.1317L-0.00012207 29.132V27.8666L14.161 25.654L14.1552 25.3699L14.1533 25.2904L14.1513 25.2487L14.1494 25.1856C14.1368 24.8414 14.1048 24.4003 14.0544 23.865L14.0447 23.7632L14.0272 23.5877C13.9264 22.5755 13.6074 21.6417 13.0479 20.9475C12.343 20.07 11.2638 19.5706 9.63197 19.5609H8.78647L8.45002 18.8396C7.64137 17.1059 7.24964 15.379 7.24964 13.6473C7.24964 11.4696 8.13296 9.36357 9.68821 7.80056L9.82395 7.66772L-0.00012207 6.13186V4.86749Z" fill="white"/>
<path fill-rule="evenodd" clip-rule="evenodd" d="M15.9994 6.49939C20.4673 6.49939 23.4993 9.93762 23.4993 13.6473C23.4993 15.1367 23.1745 16.6861 22.4162 18.3112C18.021 18.3112 16.936 21.4585 16.7305 23.4404L16.7169 23.5713C16.648 24.2791 16.6073 24.8463 16.5967 25.273L15.406 25.4591V25.4203C15.3894 24.7902 15.3467 24.161 15.278 23.5345L15.2751 23.4995C15.085 21.5225 14.0233 18.3112 9.58347 18.3112C8.82427 16.6861 8.49945 15.1367 8.49945 13.6473C8.49945 9.93762 11.5324 6.49939 15.9994 6.49939Z" fill="#0073FA"/>
</g>
<defs>
<clipPath id="clip0_2005_1346">
<rect width="32" height="32" rx="5" fill="white"/>
</clipPath>
</defs>
</svg>
