<svg width="183" height="74" viewBox="0 0 183 74" fill="none" xmlns="http://www.w3.org/2000/svg">
<path d="M19.4023 45.1387H15.834V35.4258H19.4023V45.1387Z" fill="#004D35"/>
<path d="M23.9531 45.1387H20.3848V35.4258H23.9531V45.1387Z" fill="#004D35"/>
<path d="M36.6406 45.1387H33.0723V35.4258H36.6406V45.1387Z" fill="#004D35"/>
<path d="M41.1953 45.1387H37.627V35.4258H41.1953V45.1387Z" fill="#004D35"/>
<path d="M53.6836 45.1387H50.1152V35.4258H53.6836V45.1387Z" fill="#004D35"/>
<path d="M58.25 45.1387H54.6816V35.4258H58.25V45.1387Z" fill="#004D35"/>
<path fill-rule="evenodd" clip-rule="evenodd" d="M83.9131 42.2783C84.753 42.2783 85.5452 42.4221 86.2891 42.71C87.045 42.9859 87.7112 43.3881 88.2871 43.916C88.8631 44.432 89.3193 45.0561 89.6553 45.7881C89.9913 46.5081 90.1592 47.3122 90.1592 48.2002C90.1592 49.0041 90.0211 49.7841 89.7451 50.54C89.4692 51.2959 89.0614 51.9677 88.5215 52.5557C87.9816 53.1436 87.3097 53.612 86.5059 53.96C85.7139 54.308 84.795 54.4824 83.751 54.4824C82.9231 54.4824 82.1309 54.3443 81.375 54.0684C80.6311 53.7804 79.9649 53.3782 79.377 52.8623C78.8011 52.3344 78.3457 51.7101 78.0098 50.9902C77.6858 50.2582 77.5234 49.4476 77.5234 48.5596C77.5235 47.7437 77.656 46.9636 77.9199 46.2197C78.1959 45.4639 78.6037 44.792 79.1436 44.2041C79.6835 43.6161 80.3496 43.1478 81.1416 42.7998C81.9455 42.4519 82.8693 42.2784 83.9131 42.2783ZM83.5713 43.124C82.8994 43.1241 82.3293 43.3162 81.8613 43.7002C81.4054 44.0842 81.0629 44.6122 80.835 45.2842C80.607 45.9561 80.4932 46.7361 80.4932 47.624C80.4932 48.368 80.565 49.1003 80.709 49.8203C80.853 50.5282 81.0694 51.1701 81.3574 51.7461C81.6453 52.3219 82.0112 52.7839 82.4551 53.1318C82.911 53.4798 83.4513 53.6543 84.0752 53.6543C84.7591 53.6543 85.3292 53.462 85.7852 53.0781C86.2532 52.6941 86.6011 52.1596 86.8291 51.4756C87.057 50.7917 87.1719 50.006 87.1719 49.1182C87.1719 48.3862 87.0991 47.666 86.9551 46.958C86.8231 46.238 86.6076 45.5896 86.3076 45.0137C86.0197 44.4379 85.6473 43.9824 85.1914 43.6465C84.7354 43.2985 84.1953 43.124 83.5713 43.124Z" fill="#004D35"/>
<path fill-rule="evenodd" clip-rule="evenodd" d="M135.923 42.2783C136.763 42.2783 137.555 42.422 138.299 42.71C139.055 42.986 139.721 43.388 140.297 43.916C140.873 44.432 141.329 45.0561 141.665 45.7881C142.001 46.5081 142.169 47.3122 142.169 48.2002C142.169 49.0041 142.031 49.7841 141.755 50.54C141.479 51.2959 141.071 51.9678 140.531 52.5557C139.991 53.1437 139.319 53.612 138.515 53.96C137.723 54.3079 136.805 54.4824 135.761 54.4824C134.933 54.4824 134.141 54.3443 133.385 54.0684C132.641 53.7804 131.975 53.3783 131.387 52.8623C130.811 52.3343 130.355 51.7102 130.019 50.9902C129.695 50.2582 129.533 49.4476 129.533 48.5596C129.533 47.7437 129.665 46.9636 129.929 46.2197C130.205 45.4638 130.613 44.792 131.153 44.2041C131.693 43.6162 132.359 43.1478 133.151 42.7998C133.955 42.452 134.879 42.2783 135.923 42.2783ZM135.581 43.124C134.909 43.124 134.339 43.3162 133.871 43.7002C133.415 44.0842 133.073 44.6122 132.845 45.2842C132.617 45.9561 132.503 46.7361 132.503 47.624C132.503 48.368 132.575 49.1003 132.719 49.8203C132.863 50.5282 133.079 51.1702 133.367 51.7461C133.655 52.322 134.021 52.7839 134.465 53.1318C134.921 53.4798 135.461 53.6543 136.085 53.6543C136.769 53.6543 137.339 53.4621 137.795 53.0781C138.263 52.6941 138.611 52.1596 138.839 51.4756C139.067 50.7917 139.181 50.0059 139.181 49.1182C139.181 48.3862 139.109 47.666 138.965 46.958C138.833 46.238 138.616 45.5897 138.316 45.0137C138.029 44.4381 137.657 43.9824 137.201 43.6465C136.745 43.2985 136.205 43.1241 135.581 43.124Z" fill="#004D35"/>
<path d="M127.75 42.4043C127.882 42.4043 128.008 42.4277 128.128 42.4756C128.26 42.5116 128.326 42.5844 128.326 42.6924C128.326 42.8122 128.266 42.8964 128.146 42.9443C128.038 42.9803 127.918 43.0158 127.786 43.0518C127.522 43.1358 127.24 43.2925 126.94 43.5205C126.641 43.7364 126.376 43.9819 126.148 44.2578L123.683 47.2998C123.551 47.4678 123.479 47.618 123.467 47.75C123.455 47.882 123.52 48.05 123.664 48.2539L126.67 52.5205C126.862 52.7844 127.066 53.0178 127.282 53.2217C127.51 53.4137 127.739 53.5462 127.967 53.6182C128.099 53.6422 128.236 53.6965 128.38 53.7803C128.536 53.8523 128.614 53.9484 128.614 54.0684C128.614 54.1522 128.572 54.2121 128.488 54.248C128.404 54.296 128.29 54.3203 128.146 54.3203C127.703 54.3203 127.283 54.3082 126.887 54.2842C126.491 54.2722 126.106 54.2545 125.734 54.2305C125.374 54.2065 125.002 54.1999 124.618 54.2119C124.258 54.2119 123.898 54.2185 123.538 54.2305C123.19 54.2545 122.836 54.2656 122.477 54.2656C122.369 54.2656 122.26 54.2423 122.152 54.1943C122.044 54.1463 121.99 54.0801 121.99 53.9961C121.99 53.9001 122.05 53.8217 122.17 53.7617C122.29 53.6897 122.405 53.6422 122.513 53.6182C122.741 53.5582 122.968 53.4741 123.196 53.3662C123.424 53.2583 123.538 53.1022 123.538 52.8984C123.538 52.8384 123.526 52.7722 123.502 52.7002C123.478 52.6282 123.436 52.5564 123.376 52.4844L121.414 49.7119C121.27 49.4961 121.138 49.3756 121.019 49.3516C120.911 49.3156 120.778 49.4182 120.622 49.6582L118.931 52.0879C118.775 52.3159 118.679 52.5081 118.643 52.6641C118.619 52.8199 118.612 52.9338 118.624 53.0059C118.648 53.1739 118.726 53.3185 118.858 53.4385C119.002 53.5464 119.2 53.6183 119.452 53.6543C119.584 53.6783 119.704 53.7259 119.812 53.7979C119.932 53.8578 119.992 53.9419 119.992 54.0498C119.992 54.1338 119.938 54.1945 119.83 54.2305C119.734 54.2663 119.614 54.2841 119.471 54.2842C119.123 54.2842 118.78 54.2776 118.444 54.2656C118.121 54.2536 117.851 54.2481 117.635 54.248C117.275 54.248 116.944 54.2658 116.645 54.3018C116.357 54.3378 116.026 54.3564 115.654 54.3564C115.51 54.3564 115.384 54.3322 115.276 54.2842C115.168 54.2482 115.114 54.1762 115.114 54.0684C115.114 53.9484 115.163 53.87 115.259 53.834C115.367 53.786 115.481 53.7384 115.601 53.6904C115.841 53.6304 116.075 53.5343 116.303 53.4023C116.543 53.2704 116.788 53.0901 117.04 52.8623C117.292 52.6343 117.556 52.346 117.832 51.998L120.011 49.1719C120.167 48.98 120.244 48.782 120.244 48.5781C120.256 48.3741 120.179 48.1577 120.011 47.9297L117.454 44.3301C117.31 44.1261 117.166 43.946 117.022 43.79C116.891 43.6222 116.735 43.4783 116.555 43.3584C116.387 43.2384 116.188 43.1479 115.96 43.0879C115.84 43.0519 115.738 43.0099 115.654 42.9619C115.57 42.9139 115.528 42.8299 115.528 42.71C115.528 42.614 115.565 42.5477 115.637 42.5117C115.721 42.4759 115.81 42.458 115.906 42.458C116.446 42.458 117.004 42.4757 117.58 42.5117C118.168 42.5477 118.745 42.5664 119.309 42.5664C119.693 42.5664 120.07 42.5477 120.442 42.5117C120.826 42.4757 121.211 42.458 121.595 42.458C121.703 42.4581 121.81 42.4824 121.918 42.5303C122.038 42.5663 122.099 42.626 122.099 42.71C122.099 42.806 122.038 42.8899 121.918 42.9619C121.81 43.0218 121.696 43.0639 121.576 43.0879C121.216 43.1718 120.947 43.268 120.767 43.376C120.599 43.4719 120.515 43.6158 120.515 43.8076C120.515 43.9516 120.611 44.1625 120.803 44.4385L122.513 46.7783C122.633 46.9341 122.734 47.0183 122.818 47.0303C122.914 47.0422 123.016 46.9701 123.124 46.8145L124.618 44.7617C124.786 44.5459 124.9 44.36 124.96 44.2041C125.02 44.0363 125.051 43.8924 125.051 43.7725C125.051 43.6165 124.99 43.484 124.87 43.376C124.75 43.2681 124.546 43.1784 124.259 43.1064C124.139 43.0704 124.018 43.0219 123.898 42.9619C123.778 42.9019 123.719 42.818 123.719 42.71C123.719 42.6261 123.772 42.5663 123.88 42.5303C123.988 42.4943 124.12 42.4756 124.276 42.4756C124.516 42.4756 124.714 42.4822 124.87 42.4941C125.026 42.4941 125.182 42.4997 125.338 42.5117C125.494 42.5237 125.686 42.5303 125.914 42.5303C126.262 42.5303 126.568 42.5116 126.832 42.4756C127.096 42.4276 127.402 42.4043 127.75 42.4043Z" fill="#004D35"/>
<path d="M112.519 42.3496C112.603 42.3496 112.693 42.3804 112.789 42.4404C112.897 42.4885 112.957 42.5725 112.969 42.6924C113.017 43.1243 113.076 43.5443 113.148 43.9521C113.22 44.3601 113.257 44.7202 113.257 45.0322C113.257 45.1401 113.233 45.2242 113.185 45.2842C113.137 45.344 113.082 45.374 113.022 45.374C112.963 45.3739 112.897 45.3496 112.825 45.3018C112.765 45.2538 112.717 45.1819 112.681 45.0859C112.561 44.7861 112.452 44.5284 112.356 44.3125C112.26 44.0966 112.153 43.922 112.033 43.79C111.889 43.658 111.715 43.5321 111.511 43.4121C111.307 43.2921 111.048 43.2324 110.736 43.2324H109.387C109.123 43.2324 108.895 43.3043 108.703 43.4482C108.511 43.5802 108.415 43.7724 108.415 44.0244V47.4258C108.415 47.5698 108.457 47.678 108.541 47.75C108.625 47.8219 108.733 47.8584 108.865 47.8584H110.449C110.761 47.8583 110.983 47.7557 111.115 47.5518C111.259 47.3359 111.385 47.0781 111.493 46.7783C111.577 46.5505 111.697 46.4367 111.853 46.4365C111.912 46.4365 111.967 46.472 112.015 46.5439C112.063 46.6039 112.08 46.7 112.068 46.832C112.056 46.9759 112.045 47.1319 112.033 47.2998C112.021 47.4677 112.009 47.6358 111.997 47.8037V48.7578C112.009 48.9257 112.015 49.0938 112.015 49.2617C112.027 49.4297 112.039 49.592 112.051 49.748C112.075 49.9159 112.069 50.042 112.033 50.126C111.997 50.1979 111.943 50.2343 111.871 50.2344C111.679 50.2344 111.541 50.0776 111.457 49.7656C111.349 49.4059 111.229 49.1304 111.097 48.9385C110.965 48.7465 110.779 48.6505 110.539 48.6504H108.865C108.721 48.6504 108.606 48.6858 108.522 48.7578C108.451 48.8178 108.415 48.9205 108.415 49.0645V52.4844C108.415 52.8441 108.493 53.0963 108.648 53.2402C108.804 53.3842 109.045 53.4561 109.369 53.4561H110.917C111.181 53.456 111.433 53.4262 111.673 53.3662C111.913 53.3062 112.117 53.2036 112.285 53.0596C112.489 52.8916 112.675 52.6815 112.843 52.4297C113.011 52.1778 113.167 51.908 113.311 51.6201C113.359 51.5361 113.407 51.482 113.455 51.458C113.515 51.4222 113.581 51.4044 113.652 51.4043C113.712 51.4043 113.755 51.4398 113.779 51.5117C113.815 51.5837 113.833 51.6621 113.833 51.7461C113.833 51.95 113.803 52.1779 113.743 52.4297C113.683 52.6817 113.605 52.9522 113.509 53.2402C113.425 53.5162 113.341 53.7924 113.257 54.0684C113.233 54.1522 113.179 54.2121 113.095 54.248C113.023 54.284 112.944 54.3018 112.86 54.3018C112.704 54.3017 112.41 54.2962 111.979 54.2842C111.559 54.2842 111.06 54.2776 110.484 54.2656C109.909 54.2536 109.315 54.2425 108.703 54.2305H106.993C106.753 54.2305 106.489 54.2361 106.201 54.248C105.913 54.26 105.618 54.2722 105.318 54.2842C105.031 54.3082 104.761 54.3203 104.509 54.3203C104.389 54.3203 104.293 54.2904 104.221 54.2305C104.161 54.1825 104.131 54.1218 104.131 54.0498C104.131 53.87 104.263 53.7439 104.526 53.6719C104.934 53.5639 105.223 53.4379 105.391 53.2939C105.571 53.1499 105.661 52.886 105.661 52.502V44.3125C105.661 43.9286 105.583 43.6524 105.427 43.4844C105.271 43.3164 104.977 43.1839 104.545 43.0879C104.389 43.0519 104.281 43.0043 104.221 42.9443C104.161 42.8723 104.131 42.794 104.131 42.71C104.131 42.638 104.167 42.5783 104.239 42.5303C104.311 42.4704 104.407 42.4405 104.526 42.4404C104.826 42.4404 105.132 42.446 105.444 42.458C105.756 42.47 106.063 42.4877 106.363 42.5117C106.663 42.5237 106.951 42.5303 107.227 42.5303C107.851 42.5303 108.517 42.5237 109.225 42.5117C109.933 42.4997 110.563 42.4876 111.115 42.4756C111.499 42.4756 111.817 42.4578 112.068 42.4219C112.32 42.374 112.47 42.3497 112.519 42.3496Z" fill="#004D35"/>
<path fill-rule="evenodd" clip-rule="evenodd" d="M149.473 42.4043C150.901 42.4043 151.981 42.6076 152.713 43.0156C153.457 43.4116 153.829 44.102 153.829 45.0859C153.829 45.4579 153.745 45.8124 153.577 46.1484C153.409 46.4724 153.193 46.742 152.929 46.958C152.737 47.126 152.532 47.2641 152.316 47.3721C152.112 47.48 151.878 47.5696 151.614 47.6416C151.566 47.6536 151.543 47.6845 151.543 47.7324C151.543 47.7801 151.567 47.8102 151.614 47.8223C151.926 47.8943 152.251 47.9904 152.587 48.1104C152.923 48.2183 153.235 48.3799 153.522 48.5957C153.822 48.8117 154.057 49.0944 154.225 49.4424C154.405 49.7784 154.495 50.2104 154.495 50.7383C154.495 51.41 154.387 51.9439 154.171 52.3398C153.967 52.7237 153.715 53.0177 153.415 53.2217C153.127 53.4257 152.856 53.5936 152.604 53.7256C152.209 53.9176 151.759 54.0622 151.255 54.1582C150.751 54.2542 150.151 54.3017 149.455 54.3018C149.059 54.3018 148.657 54.2896 148.249 54.2656C147.853 54.2416 147.432 54.2305 146.988 54.2305C146.737 54.2305 146.461 54.2361 146.161 54.248C145.861 54.26 145.561 54.2722 145.261 54.2842C144.973 54.3082 144.697 54.3203 144.433 54.3203C144.325 54.3203 144.235 54.2902 144.163 54.2305C144.103 54.1825 144.072 54.1218 144.072 54.0498C144.072 53.8699 144.205 53.7438 144.469 53.6719C144.877 53.5639 145.165 53.4379 145.333 53.2939C145.513 53.1499 145.603 52.8858 145.603 52.502V44.3125C145.603 43.9288 145.525 43.6524 145.369 43.4844C145.213 43.3044 144.925 43.1719 144.505 43.0879C144.349 43.0519 144.241 43.0043 144.181 42.9443C144.121 42.8723 144.091 42.794 144.091 42.71C144.091 42.6381 144.127 42.5782 144.198 42.5303C144.27 42.4703 144.361 42.4404 144.469 42.4404C144.853 42.4404 145.171 42.4516 145.423 42.4756C145.675 42.4996 145.909 42.5239 146.125 42.5479C146.353 42.5598 146.617 42.5664 146.917 42.5664C147.193 42.5664 147.445 42.5543 147.673 42.5303C147.901 42.4943 148.153 42.4644 148.429 42.4404C148.717 42.4164 149.065 42.4043 149.473 42.4043ZM149.203 48.3984C148.999 48.3984 148.807 48.4517 148.627 48.5596C148.459 48.6556 148.375 48.8002 148.375 48.9922V52.1602C148.375 52.5561 148.471 52.85 148.663 53.042C148.855 53.2219 149.125 53.3125 149.473 53.3125C149.833 53.3125 150.169 53.2042 150.48 52.9883C150.804 52.7723 151.056 52.484 151.236 52.124C151.428 51.7521 151.524 51.3322 151.524 50.8643C151.524 50.4563 151.47 50.1139 151.362 49.8379C151.266 49.562 151.147 49.3398 151.003 49.1719C150.871 49.004 150.745 48.8779 150.625 48.7939C150.529 48.7099 150.355 48.626 150.103 48.542C149.863 48.4461 149.563 48.3985 149.203 48.3984ZM149.329 43.1963C148.993 43.1963 148.747 43.2625 148.591 43.3945C148.447 43.5145 148.375 43.7002 148.375 43.9521V46.958C148.375 47.198 148.459 47.3659 148.627 47.4619C148.795 47.5459 148.951 47.5879 149.095 47.5879C149.383 47.5879 149.647 47.558 149.887 47.498C150.127 47.426 150.373 47.2936 150.625 47.1016C150.709 47.0174 150.823 46.8493 150.967 46.5977C151.123 46.3337 151.2 45.9557 151.2 45.4639C151.2 44.96 151.135 44.54 151.003 44.2041C150.871 43.8681 150.667 43.6162 150.391 43.4482C150.127 43.2803 149.773 43.1963 149.329 43.1963Z" fill="#004D35"/>
<path fill-rule="evenodd" clip-rule="evenodd" d="M156.78 42.4404C157.056 42.4404 157.35 42.446 157.662 42.458C157.974 42.47 158.275 42.4877 158.562 42.5117C158.862 42.5237 159.139 42.5303 159.391 42.5303C159.631 42.5303 159.9 42.5237 160.2 42.5117C160.512 42.4997 160.825 42.4876 161.137 42.4756C161.461 42.4636 161.755 42.458 162.019 42.458C162.126 42.4581 162.211 42.4823 162.271 42.5303C162.33 42.5663 162.36 42.6261 162.36 42.71C162.36 42.83 162.324 42.9139 162.252 42.9619C162.192 43.0099 162.096 43.0519 161.964 43.0879C161.484 43.2199 161.16 43.3701 160.992 43.5381C160.836 43.6941 160.758 43.9581 160.758 44.3301V46.9756C160.758 47.3716 160.944 47.5703 161.316 47.5703H161.389C161.425 47.5703 161.46 47.5637 161.496 47.5518C161.652 47.5278 161.869 47.4979 162.145 47.4619C162.42 47.4139 162.714 47.3896 163.026 47.3896C164.154 47.3897 165.048 47.678 165.708 48.2539C166.38 48.8299 166.716 49.634 166.716 50.666C166.716 51.35 166.609 51.8901 166.393 52.2861C166.177 52.6821 165.925 52.9825 165.637 53.1865C165.349 53.3905 165.09 53.5584 164.862 53.6904C164.49 53.9064 164.07 54.0622 163.603 54.1582C163.147 54.2542 162.612 54.3018 162 54.3018C161.928 54.3017 161.808 54.2961 161.641 54.2842C161.473 54.2722 161.214 54.26 160.866 54.248C160.53 54.236 160.038 54.2305 159.391 54.2305C159.139 54.2305 158.862 54.2361 158.562 54.248C158.275 54.26 157.981 54.2722 157.681 54.2842C157.381 54.3082 157.104 54.3203 156.853 54.3203C156.733 54.3203 156.636 54.2903 156.564 54.2305C156.504 54.1825 156.475 54.1218 156.475 54.0498C156.475 53.87 156.606 53.7438 156.87 53.6719C157.278 53.5639 157.566 53.4379 157.734 53.2939C157.914 53.1499 158.004 52.8859 158.004 52.502V44.3125C158.004 43.9286 157.926 43.658 157.771 43.502C157.615 43.334 157.296 43.1959 156.816 43.0879C156.564 43.0279 156.438 42.902 156.438 42.71C156.439 42.626 156.474 42.5597 156.546 42.5117C156.618 42.4637 156.696 42.4404 156.78 42.4404ZM161.532 48.2002C161.46 48.2002 161.382 48.2058 161.298 48.2178C161.226 48.2178 161.166 48.2365 161.118 48.2725C161.01 48.2965 160.926 48.3498 160.866 48.4336C160.806 48.5176 160.776 48.638 160.776 48.7939V52.4297C160.776 52.5977 160.788 52.7544 160.812 52.8984C160.848 53.0422 160.908 53.1619 160.992 53.2578C161.088 53.3538 161.196 53.4322 161.316 53.4922C161.448 53.5521 161.592 53.582 161.748 53.582C162.084 53.582 162.402 53.4617 162.702 53.2217C163.002 52.9697 163.248 52.6338 163.44 52.2139C163.632 51.7819 163.729 51.2958 163.729 50.7559C163.729 50.3239 163.674 49.9637 163.566 49.6758C163.47 49.388 163.344 49.1601 163.188 48.9922C163.044 48.8122 162.912 48.6797 162.792 48.5957C162.684 48.5238 162.528 48.4397 162.324 48.3438C162.12 48.2478 161.856 48.2002 161.532 48.2002Z" fill="#004D35"/>
<path d="M97.4629 42.3496C98.9269 42.3496 100.086 42.6621 100.938 43.2861C101.801 43.8981 102.233 44.7443 102.233 45.8242C102.233 46.5802 102.071 47.2762 101.747 47.9121C101.435 48.548 100.955 49.064 100.308 49.46C99.6716 49.844 98.861 50.0361 97.877 50.0361C97.5651 50.0361 97.3252 49.9876 97.1572 49.8916C97.0014 49.7956 96.9229 49.6818 96.9229 49.5498C96.9229 49.4659 96.9593 49.3995 97.0312 49.3516C97.1151 49.2917 97.1872 49.2618 97.2471 49.2617C97.379 49.2617 97.4929 49.2805 97.5889 49.3164C97.6849 49.3404 97.8174 49.3516 97.9854 49.3516C98.4893 49.3515 98.8672 49.0698 99.1191 48.5059C99.3831 47.9419 99.5156 47.1982 99.5156 46.2744C99.5156 45.1705 99.3356 44.3719 98.9756 43.8799C98.6156 43.3879 98.1109 43.1416 97.4629 43.1416C97.1272 43.1417 96.8694 43.2201 96.6895 43.376C96.5215 43.5199 96.4376 43.7478 96.4375 44.0596L96.4189 52.4297C96.4189 52.8137 96.5216 53.0898 96.7256 53.2578C96.9296 53.4138 97.2832 53.5463 97.7871 53.6543C97.9191 53.6783 98.0152 53.7203 98.0752 53.7803C98.1471 53.8282 98.1835 53.9059 98.1836 54.0137C98.1836 54.0977 98.1528 54.1639 98.0928 54.2119C98.0328 54.2598 97.9487 54.2842 97.8408 54.2842C97.5769 54.2842 97.2707 54.272 96.9229 54.248C96.587 54.236 96.2509 54.2239 95.915 54.2119C95.5791 54.1999 95.2907 54.1943 95.0508 54.1943C94.799 54.1943 94.5233 54.1999 94.2236 54.2119C93.9236 54.2239 93.6111 54.236 93.2871 54.248C92.9752 54.272 92.6868 54.2842 92.4229 54.2842C92.327 54.2841 92.2428 54.2664 92.1709 54.2305C92.099 54.1825 92.0635 54.1161 92.0635 54.0322C92.0635 53.8402 92.1894 53.7143 92.4414 53.6543C92.8972 53.5583 93.2089 53.4379 93.377 53.2939C93.557 53.1379 93.6475 52.8618 93.6475 52.4658V44.4023C93.6475 43.9947 93.5754 43.7006 93.4316 43.5205C93.2877 43.3285 92.9993 43.1839 92.5674 43.0879C92.4115 43.0519 92.3032 43.0043 92.2432 42.9443C92.1832 42.8723 92.1533 42.794 92.1533 42.71C92.1534 42.6381 92.1891 42.5782 92.2607 42.5303C92.3327 42.4703 92.429 42.4405 92.5488 42.4404C92.8247 42.4404 93.101 42.446 93.377 42.458C93.6649 42.47 93.9411 42.4877 94.2051 42.5117C94.4811 42.5237 94.7395 42.5303 94.9795 42.5303C95.2674 42.5303 95.5194 42.5181 95.7354 42.4941C95.9633 42.4581 96.2097 42.4283 96.4736 42.4043C96.7495 42.3683 97.0792 42.3496 97.4629 42.3496Z" fill="#004D35"/>
<path d="M166.968 42.4404C167.244 42.4404 167.532 42.446 167.832 42.458C168.144 42.47 168.444 42.4877 168.732 42.5117C169.032 42.5237 169.309 42.5303 169.561 42.5303C169.8 42.5303 170.07 42.5237 170.37 42.5117C170.682 42.4997 170.995 42.4876 171.307 42.4756C171.63 42.4636 171.925 42.458 172.188 42.458C172.296 42.458 172.38 42.4823 172.44 42.5303C172.5 42.5663 172.53 42.6261 172.53 42.71C172.53 42.83 172.494 42.9139 172.422 42.9619C172.362 43.0099 172.266 43.0519 172.134 43.0879C171.654 43.2198 171.337 43.3702 171.181 43.5381C171.025 43.6941 170.946 43.9581 170.946 44.3301V52.4658C170.946 52.8138 171.03 53.0722 171.198 53.2402C171.378 53.3962 171.702 53.5343 172.17 53.6543C172.29 53.6903 172.38 53.7323 172.44 53.7803C172.512 53.8282 172.548 53.906 172.548 54.0137C172.548 54.0977 172.518 54.1639 172.458 54.2119C172.41 54.2598 172.332 54.2841 172.225 54.2842C171.961 54.2842 171.666 54.272 171.342 54.248C171.018 54.2361 170.7 54.2239 170.389 54.2119C170.077 54.1999 169.8 54.1943 169.561 54.1943C169.309 54.1943 169.032 54.1999 168.732 54.2119C168.432 54.2239 168.126 54.236 167.814 54.248C167.503 54.272 167.209 54.2842 166.933 54.2842C166.837 54.2842 166.753 54.2663 166.681 54.2305C166.609 54.1825 166.572 54.1161 166.572 54.0322C166.572 53.8403 166.698 53.7143 166.95 53.6543C167.406 53.5583 167.724 53.4379 167.904 53.2939C168.084 53.138 168.174 52.8681 168.174 52.4844V44.3125C168.174 43.9285 168.096 43.658 167.94 43.502C167.784 43.334 167.466 43.1959 166.986 43.0879C166.734 43.0279 166.608 42.902 166.608 42.71C166.608 42.6261 166.644 42.5597 166.716 42.5117C166.788 42.4638 166.872 42.4405 166.968 42.4404Z" fill="#004D35"/>
<path fill-rule="evenodd" clip-rule="evenodd" d="M29.293 8.72852H21.4473L20.4004 4.97559H15.5332L14.4863 8.72852H11.0801L6.71875 13.082V28.7646L1.55469 31.0137V34.7217L6.71875 32.5137V52.3633H3.4375V57.627H6.71875V65.0723L10.7793 69.126L11.0801 69.4248H16.042L17.0889 65.6719H18.8438L19.8906 69.4248H30.8486L31.8955 65.6719H42.3467L43.3945 69.4248H54.3516L55.3984 65.6719H57.1533L58.2002 69.4248H63.1631L67.5244 65.0723V57.627H70.5986V52.3633H67.5244V32.5859L72.5176 34.7217V31.0137L67.5244 28.8398V13.082L67.2236 12.7812L63.4629 9.02832L63.1631 8.72852H59.7568L58.9189 5.72461L58.709 4.97559H53.8418L52.7949 8.72852H44.9502L43.9033 4.97559H30.3398L29.293 8.72852ZM11.9277 67.376L8.76758 64.2217V57.627H65.4746V64.2217L62.3154 67.376H59.7568L58.9189 64.3711L58.709 63.6221H53.8418L52.7949 67.376H44.9502L43.9033 63.6221H30.3398L29.293 67.376H21.4473L20.4004 63.6221H15.5332L14.4863 67.376H11.9277ZM9.84082 52.3633H8.76758V49.5312H9.84082V52.3633ZM11.9121 52.3633H10.6338V32.4463H11.9121V52.3633ZM26.9951 52.3633H12.7051V49.5312H26.9951V52.3633ZM29.001 52.3633H27.7871V25.1982H29.001V52.3633ZM44.2783 52.3633H29.7939V49.5312H44.2783V52.3633ZM46.2852 52.3633H45.0713V25.1982H46.2852V52.3633ZM61.3682 52.3633H47.0781V49.5312H61.3682V52.3633ZM63.4395 52.3633H62.1611V32.4463H63.4395V52.3633ZM65.4746 52.3633H64.2324V49.5312H65.4746V52.3633ZM9.84082 48.7383H8.76758V46.4248H9.84082V48.7383ZM26.9951 48.7383H12.7051V46.4248H13.4492V48.1123H15.793V46.5566H23.791V48.1123H26.1357V46.4248H26.9951V48.7383ZM44.2783 48.7383H29.7939V46.4248H30.8906V48.1123H33.2168V46.5566H41.1104V48.1123H43.1807V46.4248H44.2783V48.7383ZM61.3682 48.7383H47.0781V46.4248H47.9375V48.1123H50.2812V46.5566H58.2793V48.1123H60.624V46.4248H61.3682V48.7383ZM65.4746 48.7383H64.2324V46.4248H65.4746V48.7383ZM15.001 47.3193H14.2422V34.6328H25.3428V47.3193H24.584V45.7637H15.001V47.3193ZM32.4238 47.3193H31.6836V34.6328H42.3877V47.3193H41.9033V45.7637H32.4238V47.3193ZM49.4893 47.3193H48.7305V34.6328H59.8311V47.3193H59.0723V45.7637H49.4893V47.3193ZM9.84082 45.6318H8.76758V43.5771H9.84082V45.6318ZM13.4492 45.6318H12.7051V43.5771H13.4492V45.6318ZM26.9951 45.6318H26.1357V43.5771H26.9951V45.6318ZM30.8906 45.6318H29.7939V43.5771H30.8906V45.6318ZM44.2783 45.6318H43.1807V43.5771H44.2783V45.6318ZM47.9375 45.6318H47.0781V43.5771H47.9375V45.6318ZM61.3682 45.6318H60.624V43.5771H61.3682V45.6318ZM65.4746 45.6318H64.2324V43.5771H65.4746V45.6318ZM9.84082 42.7852H8.76758V40.2119H9.84082V42.7852ZM13.4492 42.7852H12.7051V40.2119H13.4492V42.7852ZM26.9951 42.7852H26.1357V40.2119H26.9951V42.7852ZM30.8906 42.7852H29.7939V40.2119H30.8906V42.7852ZM44.2783 42.7852H43.1807V40.2119H44.2783V42.7852ZM47.9375 42.7852H47.0781V40.2119H47.9375V42.7852ZM61.3682 42.7852H60.624V40.2119H61.3682V42.7852ZM65.4746 42.7852H64.2324V40.2119H65.4746V42.7852ZM9.84082 39.4199H8.76758V37.3652H9.84082V39.4199ZM13.4492 39.4199H12.7051V37.3652H13.4492V39.4199ZM26.9951 39.4199H26.1357V37.3652H26.9951V39.4199ZM30.8906 39.4199H29.7939V37.3652H30.8906V39.4199ZM44.2783 39.4199H43.1807V37.3652H44.2783V39.4199ZM47.9375 39.4199H47.0781V37.3652H47.9375V39.4199ZM61.3682 39.4199H60.624V37.3652H61.3682V39.4199ZM65.4746 39.4199H64.2324V37.3652H65.4746V39.4199ZM9.84082 36.5723H8.76758V34.5176H9.84082V36.5723ZM13.4492 36.5723H12.7051V34.5176H13.4492V36.5723ZM26.9951 36.5723H26.1357V34.5176H26.9951V36.5723ZM30.8906 36.5723H29.7939V34.5176H30.8906V36.5723ZM44.2783 36.5723H43.1807V34.5176H44.2783V36.5723ZM47.9375 36.5723H47.0781V34.5176H47.9375V36.5723ZM61.3682 36.5723H60.624V34.5176H61.3682V36.5723ZM65.4746 36.5723H64.2324V34.5176H65.4746V36.5723ZM8.76758 33.7246V31.6367L9.32227 31.4004V32.4463H9.84082V33.7246H8.76758ZM12.7051 32.4463H13.2227V30.8936H26.9951V33.7246H12.7051V32.4463ZM44.2783 33.7246H29.7939V30.8936H44.2783V33.7246ZM61.3682 33.7246H47.0781V30.8936H60.8496V32.4463H61.3682V33.7246ZM64.2324 32.4463H64.75V31.4004L65.4746 31.71V33.7246H64.2324V32.4463ZM10.1152 31.6533V31.0625L10.5117 30.8936H12.4297V31.6533H10.1152ZM63.957 31.6533H61.6426V30.8936H63.5605L63.957 31.0615V31.6533ZM26.9951 30.1006H12.3672L18.9941 27.2686H26.9951V30.1006ZM44.2783 30.1006H29.7939V27.2686H44.2783V30.1006ZM61.7051 30.1006H47.0781V27.2686H55.0791L61.7051 30.1006ZM11.9268 10.7783H16.042L17.0889 7.02441H18.8438L19.8906 10.7783H30.8486L31.8955 7.02441H42.3467L43.3945 10.7783H54.3516L55.3984 7.02441H57.1533L58.2002 10.7783H62.3154L65.4746 13.9316V27.9473L37.1934 15.6367L37.0352 15.5674L36.877 15.6367L8.76758 27.873V13.9316L11.9268 10.7783ZM26.9951 26.4756H20.8496L26.4121 24.0977V25.1982H26.9951V26.4756ZM29.7939 25.1982H30.3125V23.6445H43.7607V25.1982H44.2783V26.4756H29.7939V25.1982ZM47.0781 25.1982H47.6611V24.0977L53.2236 26.4756H47.0781V25.1982ZM27.2051 24.4053V23.7588L27.4736 23.6445H29.5195V24.4053H27.2051ZM46.8682 24.4053H44.5537V23.6445H46.5986L46.8682 23.7588V24.4053ZM35.7334 22.8516H29.3291L35.2158 20.335V21.5742H35.7334V22.8516ZM36.5264 20.7812H36.0088V20.0205H38.0645V20.7812H37.5459V22.8516H36.5264V20.7812ZM38.3389 21.5742H38.8574V20.335L44.7432 22.8516H38.3389V21.5742ZM6.71875 56.834H4.22949V53.1553H6.71875H8.76758H65.4746H67.5244H69.8057V56.834H67.5244H65.4746H8.76758H6.71875ZM2.34766 33.5195V31.5322L6.71875 29.6289L8.76758 28.7373L37.0352 16.4316L65.4746 28.8115L67.5244 29.7031L71.7246 31.5322V33.5195L67.5244 31.7236L65.4746 30.8477L38.3574 19.2598L38.2832 19.2275H35.79L35.7148 19.2598L8.76758 30.7754L6.71875 31.6514L2.34766 33.5195Z" fill="#004D35"/>
<path d="M123.091 35.192C122.75 35.192 122.446 35.1493 122.179 35.064C121.923 34.9787 121.795 34.888 121.795 34.792C121.795 34.6107 121.896 34.52 122.099 34.52C122.344 34.52 122.574 34.4347 122.787 34.264C123 34.0933 123.203 33.88 123.395 33.624C123.587 33.3573 123.768 33.096 123.939 32.84C124.131 32.5627 124.296 32.344 124.435 32.184C124.574 32.0133 124.712 31.8907 124.851 31.816C124.979 31.752 124.984 31.704 124.867 31.672C124.43 31.544 124.083 31.368 123.827 31.144C123.571 30.92 123.443 30.5733 123.443 30.104C123.443 29.7307 123.571 29.416 123.827 29.16C124.094 28.8933 124.44 28.6907 124.867 28.552C125.294 28.4133 125.747 28.344 126.227 28.344C126.462 28.344 126.67 28.3547 126.851 28.376C127.032 28.3867 127.203 28.4027 127.363 28.424C127.534 28.4347 127.715 28.44 127.907 28.44C128.11 28.44 128.275 28.4347 128.403 28.424C128.542 28.4027 128.686 28.3867 128.835 28.376C128.984 28.3653 129.176 28.36 129.411 28.36C129.475 28.36 129.539 28.376 129.603 28.408C129.667 28.4293 129.699 28.4667 129.699 28.52C129.699 28.5733 129.672 28.6213 129.619 28.664C129.566 28.7067 129.496 28.744 129.411 28.776C129.187 28.8293 129.022 28.904 128.915 29C128.819 29.0853 128.771 29.24 128.771 29.464V34.04C128.771 34.2533 128.83 34.3867 128.947 34.44C129.064 34.4933 129.224 34.5573 129.427 34.632C129.502 34.6427 129.566 34.6747 129.619 34.728C129.683 34.7707 129.715 34.8187 129.715 34.872C129.715 34.936 129.683 34.9787 129.619 35C129.555 35.032 129.496 35.048 129.443 35.048C129.272 35.048 129.096 35.0427 128.915 35.032C128.744 35.0213 128.574 35.0107 128.403 35C128.232 34.9893 128.062 34.984 127.891 34.984C127.688 34.984 127.502 34.9893 127.331 35C127.16 35.0107 126.99 35.0213 126.819 35.032C126.648 35.0427 126.451 35.048 126.227 35.048C126.163 35.048 126.094 35.032 126.019 35C125.944 34.9787 125.907 34.9307 125.907 34.856C125.907 34.7707 125.939 34.7067 126.003 34.664C126.067 34.6213 126.142 34.584 126.227 34.552C126.462 34.488 126.643 34.424 126.771 34.36C126.91 34.2853 126.979 34.152 126.979 33.96V32.088C126.979 31.9813 126.931 31.928 126.835 31.928C126.771 31.9173 126.707 31.9173 126.643 31.928C126.579 31.928 126.52 31.9333 126.467 31.944C126.371 31.9653 126.27 32.056 126.163 32.216C126.056 32.3653 125.88 32.6587 125.635 33.096C125.39 33.5653 125.139 33.9547 124.883 34.264C124.627 34.5733 124.355 34.808 124.067 34.968C123.779 35.1173 123.454 35.192 123.091 35.192ZM126.387 31.416C126.579 31.416 126.723 31.3893 126.819 31.336C126.926 31.272 126.979 31.192 126.979 31.096V29.384C126.979 29.1813 126.926 29.048 126.819 28.984C126.723 28.9093 126.552 28.872 126.307 28.872C126.008 28.872 125.758 28.968 125.555 29.16C125.363 29.352 125.267 29.672 125.267 30.12C125.267 30.4613 125.363 30.7653 125.555 31.032C125.747 31.288 126.024 31.416 126.387 31.416Z" fill="#004D35"/>
<path d="M114.559 35.048C114.495 35.048 114.431 35.032 114.367 35C114.303 34.968 114.271 34.9253 114.271 34.872C114.271 34.8187 114.297 34.7707 114.351 34.728C114.415 34.6747 114.484 34.6427 114.559 34.632C114.761 34.5573 114.921 34.488 115.039 34.424C115.156 34.36 115.215 34.2213 115.215 34.008V29.416C115.215 29.2027 115.167 29.0587 115.071 28.984C114.985 28.8987 114.831 28.824 114.607 28.76C114.521 28.7387 114.452 28.7067 114.399 28.664C114.345 28.6213 114.319 28.5733 114.319 28.52C114.319 28.4667 114.345 28.424 114.399 28.392C114.463 28.36 114.527 28.344 114.591 28.344C114.836 28.344 115.033 28.3547 115.183 28.376C115.332 28.3867 115.471 28.4027 115.599 28.424C115.737 28.4347 115.908 28.44 116.111 28.44C116.313 28.44 116.484 28.4347 116.623 28.424C116.761 28.4027 116.911 28.3867 117.071 28.376C117.231 28.3547 117.428 28.344 117.663 28.344C117.727 28.344 117.791 28.36 117.855 28.392C117.919 28.424 117.951 28.4667 117.951 28.52C117.951 28.5733 117.924 28.6213 117.871 28.664C117.817 28.7067 117.748 28.7387 117.663 28.76C117.439 28.824 117.273 28.8987 117.167 28.984C117.06 29.0587 117.007 29.2027 117.007 29.416V31.048C117.007 31.112 117.028 31.1547 117.071 31.176C117.113 31.1867 117.151 31.1867 117.183 31.176C117.289 31.1227 117.455 31.0853 117.679 31.064C117.913 31.032 118.121 31.016 118.303 31.016C118.537 31.016 118.788 31.048 119.055 31.112C119.321 31.176 119.572 31.2827 119.807 31.432C120.041 31.5813 120.233 31.7787 120.383 32.024C120.532 32.2587 120.607 32.5467 120.607 32.888C120.607 33.4213 120.468 33.848 120.191 34.168C119.924 34.488 119.572 34.7173 119.135 34.856C118.697 34.984 118.223 35.048 117.711 35.048C117.497 35.048 117.305 35.0427 117.135 35.032C116.964 35.0213 116.799 35.0107 116.639 35C116.479 34.9893 116.297 34.984 116.095 34.984C115.924 34.984 115.753 34.9893 115.583 35C115.412 35.0107 115.241 35.0213 115.071 35.032C114.9 35.0427 114.729 35.048 114.559 35.048ZM117.631 34.472C117.919 34.472 118.175 34.3547 118.399 34.12C118.623 33.8747 118.735 33.5173 118.735 33.048C118.735 32.5787 118.628 32.2267 118.415 31.992C118.212 31.7573 117.919 31.64 117.535 31.64C117.343 31.64 117.209 31.6667 117.135 31.72C117.081 31.7627 117.044 31.816 117.023 31.88C117.012 31.944 117.007 32.0027 117.007 32.056V33.768C117.007 33.9813 117.065 34.152 117.183 34.28C117.311 34.408 117.46 34.472 117.631 34.472Z" fill="#004D35"/>
<path d="M107.83 35.048C107.766 35.048 107.697 35.032 107.622 35C107.558 34.968 107.526 34.92 107.526 34.856C107.526 34.7707 107.553 34.7067 107.606 34.664C107.67 34.6213 107.745 34.584 107.83 34.552C108.065 34.488 108.246 34.4187 108.374 34.344C108.502 34.2693 108.566 34.1307 108.566 33.928L108.55 29.512C108.55 29.416 108.539 29.3147 108.518 29.208C108.497 29.1013 108.427 29.048 108.31 29.048H107.622C107.483 29.048 107.355 29.1067 107.238 29.224C107.131 29.3307 107.03 29.4747 106.934 29.656C106.849 29.8267 106.774 30.0133 106.71 30.216C106.689 30.2907 106.646 30.3867 106.582 30.504C106.529 30.6107 106.449 30.664 106.342 30.664C106.267 30.664 106.209 30.6267 106.166 30.552C106.134 30.4773 106.118 30.3973 106.118 30.312C106.118 30.2267 106.139 30.1147 106.182 29.976C106.225 29.8373 106.246 29.7147 106.246 29.608C106.267 29.4373 106.294 29.2453 106.326 29.032C106.358 28.808 106.374 28.6107 106.374 28.44C106.374 28.344 106.395 28.2693 106.438 28.216C106.491 28.1627 106.55 28.136 106.614 28.136C106.667 28.136 106.731 28.152 106.806 28.184C106.891 28.2053 106.977 28.2373 107.062 28.28C107.158 28.3227 107.281 28.3547 107.43 28.376C107.579 28.3973 107.75 28.408 107.942 28.408H111.398C111.558 28.408 111.718 28.4027 111.878 28.392C112.049 28.3707 112.161 28.3387 112.214 28.296C112.278 28.2533 112.347 28.216 112.422 28.184C112.497 28.152 112.55 28.136 112.582 28.136C112.625 28.136 112.667 28.1627 112.71 28.216C112.763 28.2587 112.79 28.328 112.79 28.424C112.79 28.552 112.774 28.6907 112.742 28.84C112.721 28.9893 112.71 29.144 112.71 29.304C112.71 29.4533 112.71 29.6187 112.71 29.8C112.721 29.9813 112.731 30.136 112.742 30.264C112.763 30.3387 112.747 30.424 112.694 30.52C112.651 30.616 112.587 30.664 112.502 30.664C112.406 30.664 112.331 30.6053 112.278 30.488C112.225 30.3707 112.187 30.28 112.166 30.216C112.155 30.0453 112.113 29.8693 112.038 29.688C111.974 29.5067 111.883 29.3573 111.766 29.24C111.649 29.112 111.505 29.048 111.334 29.048H110.598C110.481 29.048 110.406 29.1013 110.374 29.208C110.353 29.304 110.342 29.4053 110.342 29.512V33.928C110.342 34.1093 110.406 34.2427 110.534 34.328C110.662 34.4027 110.843 34.4773 111.078 34.552C111.163 34.584 111.238 34.6213 111.302 34.664C111.366 34.7067 111.398 34.7707 111.398 34.856C111.398 34.92 111.366 34.968 111.302 35C111.238 35.0213 111.174 35.032 111.11 35.032C110.907 35.032 110.71 35.0267 110.518 35.016C110.337 35.0053 110.161 34.9947 109.99 34.984C109.819 34.9733 109.638 34.968 109.446 34.968C109.265 34.968 109.089 34.9733 108.918 34.984C108.747 34.9947 108.577 35.0053 108.406 35.016C108.235 35.0373 108.043 35.048 107.83 35.048Z" fill="#004D35"/>
<path d="M100.295 35.2241C100.039 35.2241 99.7937 35.1547 99.559 35.0161C99.335 34.8774 99.1537 34.6961 99.015 34.4721C98.8763 34.2481 98.807 34.0187 98.807 33.7841C98.807 33.4214 98.9137 33.1281 99.127 32.9041C99.3403 32.6694 99.6603 32.4614 100.087 32.2801L101.575 31.6401C101.788 31.5547 101.916 31.4747 101.959 31.4001C102.012 31.3254 102.039 31.1867 102.039 30.9841L102.071 30.0401C102.082 29.7414 102.018 29.5014 101.879 29.3201C101.751 29.1387 101.554 29.0481 101.287 29.0481C101.148 29.0481 101.004 29.0747 100.855 29.1281C100.706 29.1814 100.588 29.2507 100.503 29.3361C100.46 29.3787 100.428 29.4374 100.407 29.5121C100.396 29.5761 100.391 29.6401 100.391 29.7041C100.391 29.7574 100.391 29.8267 100.391 29.9121C100.402 29.9867 100.407 30.0561 100.407 30.1201C100.407 30.1841 100.327 30.2641 100.167 30.3601C100.007 30.4561 99.8257 30.5414 99.623 30.6161C99.4203 30.6907 99.2497 30.7281 99.111 30.7281C99.0363 30.7281 98.9777 30.7014 98.935 30.6481C98.8923 30.5947 98.871 30.5307 98.871 30.4561C98.871 30.2854 98.9243 30.1147 99.031 29.9441C99.1483 29.7627 99.3297 29.5707 99.575 29.3681C99.8417 29.1441 100.135 28.9467 100.455 28.7761C100.775 28.5947 101.084 28.4507 101.383 28.3441C101.692 28.2374 101.959 28.1841 102.183 28.1841C102.695 28.1841 103.106 28.3547 103.415 28.6961C103.724 29.0267 103.874 29.4641 103.863 30.0081L103.783 33.4321C103.772 33.6667 103.815 33.8641 103.911 34.0241C104.018 34.1841 104.146 34.2641 104.295 34.2641C104.519 34.2641 104.7 34.2001 104.839 34.0721C104.882 34.0294 104.919 34.0081 104.951 34.0081C105.004 34.0081 105.047 34.0294 105.079 34.0721C105.122 34.1041 105.143 34.1467 105.143 34.2001C105.143 34.3174 105.058 34.4614 104.887 34.6321C104.695 34.8241 104.487 34.9681 104.263 35.0641C104.05 35.1707 103.836 35.2241 103.623 35.2241C103.058 35.2241 102.599 34.9307 102.247 34.3441H102.199C101.847 34.6534 101.522 34.8774 101.223 35.0161C100.935 35.1547 100.626 35.2241 100.295 35.2241ZM101.175 34.2641C101.324 34.2641 101.452 34.2427 101.559 34.2001C101.666 34.1467 101.756 34.0774 101.831 33.9921C101.874 33.9387 101.906 33.8747 101.927 33.8001C101.959 33.7254 101.98 33.6187 101.991 33.4801L102.023 32.4561C102.034 32.3494 102.023 32.2801 101.991 32.2481C101.959 32.2054 101.922 32.1841 101.879 32.1841C101.858 32.1841 101.826 32.1894 101.783 32.2001C101.74 32.2001 101.692 32.2161 101.639 32.2481C101.244 32.4081 100.962 32.5787 100.791 32.7601C100.62 32.9414 100.535 33.1761 100.535 33.4641C100.535 33.7521 100.604 33.9601 100.743 34.0881C100.882 34.2054 101.026 34.2641 101.175 34.2641Z" fill="#004D35"/>
<path d="M89.427 39.32C89.363 39.32 89.2937 39.304 89.219 39.272C89.1443 39.24 89.107 39.1867 89.107 39.112C89.107 39.0267 89.1443 38.9627 89.219 38.92C89.2937 38.8774 89.379 38.84 89.475 38.808C89.6777 38.744 89.8323 38.6694 89.939 38.584C90.0563 38.5094 90.115 38.3814 90.115 38.2V30.376C90.115 30.2694 90.0883 30.1467 90.035 30.008C89.9817 29.8587 89.9017 29.7254 89.795 29.608C89.699 29.48 89.571 29.4054 89.411 29.384C89.3577 29.3627 89.315 29.336 89.283 29.304C89.2617 29.2614 89.251 29.1974 89.251 29.112C89.251 29.0374 89.2617 28.984 89.283 28.952C89.315 28.9094 89.3523 28.8827 89.395 28.872C89.779 28.7867 90.163 28.68 90.547 28.552C90.931 28.4134 91.267 28.28 91.555 28.152C91.587 28.1414 91.619 28.1254 91.651 28.104C91.683 28.072 91.715 28.056 91.747 28.056C91.8003 28.056 91.8323 28.0774 91.843 28.12C91.8643 28.152 91.875 28.1947 91.875 28.248C91.875 28.3334 91.859 28.4774 91.827 28.68C91.8057 28.872 91.795 29.0374 91.795 29.176C91.795 29.2827 91.8057 29.3414 91.827 29.352C91.9337 29.2454 92.1203 29.1067 92.387 28.936C92.6643 28.7547 92.979 28.5947 93.331 28.456C93.6937 28.3174 94.0403 28.248 94.371 28.248C94.9363 28.248 95.4163 28.4027 95.811 28.712C96.2163 29.0107 96.5257 29.4 96.739 29.88C96.9523 30.3494 97.059 30.84 97.059 31.352C97.059 31.8427 96.963 32.3227 96.771 32.792C96.5897 33.2507 96.3283 33.6667 95.987 34.04C95.6457 34.4134 95.251 34.712 94.803 34.936C94.3657 35.16 93.891 35.272 93.379 35.272C93.251 35.272 93.0963 35.2507 92.915 35.208C92.7443 35.176 92.5683 35.128 92.387 35.064C92.2163 35.0107 92.067 34.9467 91.939 34.872C91.9283 34.872 91.9177 34.904 91.907 34.968C91.8963 35.0214 91.8857 35.0854 91.875 35.16C91.875 35.2347 91.875 35.2934 91.875 35.336V38.104C91.875 38.2427 91.9177 38.3547 92.003 38.44C92.0883 38.536 92.195 38.6107 92.323 38.664C92.451 38.7174 92.595 38.7654 92.755 38.808C92.8617 38.84 92.947 38.8774 93.011 38.92C93.075 38.9627 93.107 39.0267 93.107 39.112C93.107 39.176 93.075 39.224 93.011 39.256C92.947 39.2987 92.883 39.32 92.819 39.32C92.499 39.32 92.1843 39.304 91.875 39.272C91.5763 39.2507 91.2883 39.24 91.011 39.24C90.8297 39.24 90.659 39.2454 90.499 39.256C90.339 39.2667 90.1737 39.2774 90.003 39.288C89.8323 39.3094 89.6403 39.32 89.427 39.32ZM93.427 34.6C93.555 34.6 93.715 34.5574 93.907 34.472C94.099 34.376 94.2857 34.2267 94.467 34.024C94.659 33.8214 94.8137 33.544 94.931 33.192C95.059 32.84 95.123 32.408 95.123 31.896C95.123 31.3094 95.059 30.84 94.931 30.488C94.803 30.1254 94.643 29.8534 94.451 29.672C94.259 29.4907 94.0617 29.3734 93.859 29.32C93.667 29.256 93.4963 29.224 93.347 29.224C93.1337 29.224 92.915 29.272 92.691 29.368C92.467 29.4534 92.2803 29.56 92.131 29.688C91.9817 29.8054 91.907 29.9067 91.907 29.992C91.907 30.1414 91.907 30.3387 91.907 30.584C91.907 30.8187 91.9017 31.0747 91.891 31.352C91.891 31.6187 91.8857 31.864 91.875 32.088C91.875 32.312 91.875 32.472 91.875 32.568C91.875 32.8774 91.9443 33.192 92.083 33.512C92.2217 33.8214 92.4083 34.0827 92.643 34.296C92.8777 34.4987 93.139 34.6 93.427 34.6Z" fill="#004D35"/>
<path d="M78.8162 35.08C78.6989 35.08 78.6082 35.0587 78.5442 35.016C78.4802 34.9734 78.4482 34.92 78.4482 34.856C78.4482 34.7174 78.5869 34.616 78.8642 34.552C79.2376 34.456 79.5096 34.3387 79.6802 34.2C79.8616 34.0507 79.9522 33.8054 79.9522 33.464V26.184C79.9522 25.832 79.8776 25.5814 79.7282 25.432C79.5789 25.2827 79.2962 25.1654 78.8802 25.08C78.6136 25.0267 78.4802 24.9147 78.4802 24.744C78.4802 24.68 78.5176 24.632 78.5922 24.6C78.6669 24.5574 78.7522 24.536 78.8482 24.536C79.1042 24.536 79.3549 24.5414 79.6002 24.552C79.8456 24.5627 80.0802 24.5734 80.3042 24.584C80.5389 24.5947 80.7682 24.6 80.9922 24.6H85.3282C85.4029 24.6 85.5149 24.5894 85.6642 24.568C85.8136 24.536 85.9309 24.52 86.0162 24.52C86.1122 24.52 86.1816 24.5467 86.2242 24.6C86.2776 24.6427 86.3042 24.696 86.3042 24.76C86.3256 25.1227 86.3469 25.4747 86.3682 25.816C86.4002 26.1467 86.4162 26.4507 86.4162 26.728C86.4162 26.8347 86.3896 26.9147 86.3362 26.968C86.2936 27.0214 86.2456 27.048 86.1922 27.048C86.1282 27.048 86.0589 27.016 85.9842 26.952C85.9202 26.8774 85.8722 26.7974 85.8402 26.712C85.7656 26.4347 85.6802 26.184 85.5842 25.96C85.4989 25.7254 85.3656 25.5387 85.1842 25.4C85.0029 25.2614 84.7309 25.192 84.3682 25.192H82.7202C82.5069 25.192 82.3362 25.2667 82.2082 25.416C82.0802 25.5654 82.0162 25.8054 82.0162 26.136V28.488C82.0162 28.7014 82.0429 28.8667 82.0962 28.984C82.1602 29.0907 82.2616 29.144 82.4002 29.144C82.4216 29.144 82.4376 29.144 82.4482 29.144C82.4696 29.144 82.4962 29.1387 82.5282 29.128C82.6882 29.096 82.8909 29.0587 83.1362 29.016C83.3922 28.9734 83.6856 28.952 84.0162 28.952C85.0082 28.952 85.7922 29.208 86.3682 29.72C86.9549 30.2214 87.2482 30.9307 87.2482 31.848C87.2482 32.4454 87.1522 32.92 86.9602 33.272C86.7789 33.624 86.5602 33.8907 86.3042 34.072C86.0482 34.2534 85.8242 34.4027 85.6322 34.52C85.3016 34.712 84.9282 34.8507 84.5122 34.936C84.0962 35.0214 83.6162 35.064 83.0722 35.064C82.9976 35.064 82.8696 35.0534 82.6882 35.032C82.5176 35.0214 82.2829 35.0107 81.9842 35C81.6856 34.9787 81.3069 34.968 80.8482 34.968C80.6242 34.968 80.4056 34.9787 80.1922 35C79.9789 35.0107 79.7549 35.0267 79.5202 35.048C79.2962 35.0694 79.0616 35.08 78.8162 35.08ZM83.0082 34.216C83.3389 34.216 83.6536 34.12 83.9522 33.928C84.2616 33.7254 84.5122 33.4534 84.7042 33.112C84.9069 32.76 85.0082 32.3654 85.0082 31.928C85.0082 31.5227 84.9496 31.192 84.8322 30.936C84.7256 30.68 84.5976 30.472 84.4482 30.312C84.2989 30.152 84.1656 30.0347 84.0482 29.96C83.9416 29.8854 83.7709 29.8054 83.5362 29.72C83.3122 29.6347 83.0402 29.592 82.7202 29.592C82.5176 29.592 82.3469 29.6347 82.2082 29.72C82.0802 29.7947 82.0162 29.9334 82.0162 30.136V33.176C82.0162 33.5174 82.1016 33.7787 82.2722 33.96C82.4429 34.1307 82.6882 34.216 83.0082 34.216Z" fill="#004D35"/>
</svg>
