<svg width="24" height="24" viewBox="0 0 24 24" fill="none" xmlns="http://www.w3.org/2000/svg">
<path d="M9 20V17M9 20C9 21.1046 8.10457 22 7 22H4C2.89543 22 2 21.1046 2 20V17C2 15.8954 2.89543 15 4 15H7M9 20C9 21.1046 9.89543 22 11 22H14C14.5973 22 15.1335 21.7381 15.5 21.3229M7 15C8.10457 15 9 15.8954 9 17M7 15H10C10.5973 15 11.1335 14.7381 11.5 14.3229M7 15C5.89543 15 5 14.1046 5 13V10C5 9.4442 5.22671 8.94136 5.59271 8.5789M9 17C9 16.4442 9.22671 15.9414 9.59271 15.5789C9.95408 15.221 10.4512 15 11 15H14C15.1046 15 16 15.8954 16 17V20C16 20.5072 15.8112 20.9703 15.5 21.3229M5.8548 8.36012C6.17919 8.13316 6.57405 8 7 8H10C11.1046 8 12 8.89543 12 10V13C12 13.5072 11.8112 13.9703 11.5 14.3229M5.8548 8.36012C5.76126 8.42556 5.67358 8.4988 5.59271 8.5789M5.8548 8.36012L5.59271 8.5789M5.8548 8.36012L11.6771 3.5C12.0297 3.18882 12.4928 3 13 3H16C17.1046 3 18 3.89543 18 5V8C18 8.59735 17.7381 9.13353 17.3229 9.5L11.5 14.3229M17 10H20C21.1046 10 22 10.8954 22 12V15C22 15.5973 21.7381 16.1335 21.3229 16.5L15.5 21.3229" stroke="#282828" stroke-width="1.5"/>
</svg>
