<svg width="108" height="71" viewBox="0 0 108 71" fill="none" xmlns="http://www.w3.org/2000/svg">
<path d="M1.0914 49.7939V41.4148H6.3489V42.6822H2.59355V44.6538H3.67321C4.73723 44.6538 5.53916 44.8689 6.07899 45.2992C6.61882 45.7217 6.88874 46.3515 6.88874 47.1887C6.88874 48.0336 6.61491 48.6791 6.06725 49.125C5.5196 49.571 4.72549 49.7939 3.68495 49.7939H1.0914ZM2.59355 48.5382H3.66148C4.22478 48.5382 4.64335 48.4287 4.91717 48.2097C5.19883 47.9906 5.33965 47.6581 5.33965 47.2121C5.33965 46.7662 5.19883 46.4376 4.91717 46.2264C4.64335 46.0151 4.20913 45.9095 3.61453 45.9095H2.59355V48.5382ZM8.54042 52.6105V43.4333H9.73744L9.94868 44.2783H10.0191C10.1364 44.0983 10.2773 43.9379 10.4416 43.7971C10.6137 43.6485 10.8171 43.5311 11.0518 43.445C11.2943 43.359 11.5721 43.316 11.885 43.316C12.6283 43.316 13.2268 43.5937 13.6806 44.1492C14.1422 44.6968 14.373 45.5144 14.373 46.6019C14.373 47.3217 14.2634 47.928 14.0444 48.4209C13.8331 48.9138 13.5397 49.2854 13.1642 49.5358C12.7887 49.7861 12.3545 49.9113 11.8616 49.9113C11.5486 49.9113 11.2748 49.8722 11.0401 49.7939C10.8054 49.7079 10.6059 49.6023 10.4416 49.4771C10.2773 49.3441 10.1364 49.2033 10.0191 49.0546H9.93694C9.96041 49.1954 9.97997 49.3558 9.99562 49.5358C10.0113 49.7079 10.0191 49.8722 10.0191 50.0287V52.6105H8.54042ZM11.486 48.7025C11.799 48.7025 12.0532 48.6165 12.2488 48.4444C12.4522 48.2722 12.6009 48.0297 12.6948 47.7168C12.7965 47.396 12.8473 47.0165 12.8473 46.5784C12.8473 45.9212 12.7339 45.4127 12.507 45.0528C12.288 44.6929 11.9398 44.513 11.4626 44.513C11.1183 44.513 10.8406 44.5834 10.6293 44.7242C10.4181 44.8572 10.2655 45.0645 10.1717 45.3462C10.0778 45.6278 10.0269 45.9799 10.0191 46.4024V46.5902C10.0191 47.0439 10.0621 47.4273 10.1482 47.7402C10.2421 48.0532 10.3946 48.2918 10.6059 48.4561C10.8249 48.6204 11.1183 48.7025 11.486 48.7025ZM17.5533 49.9113C17.123 49.9113 16.7553 49.837 16.4501 49.6883C16.145 49.5397 15.9103 49.3206 15.746 49.0311C15.5895 48.7417 15.5113 48.3974 15.5113 47.9984C15.5113 47.3334 15.7538 46.8249 16.2389 46.4728C16.724 46.1207 17.4555 45.9291 18.4334 45.8978L19.5014 45.8626V45.5926C19.5014 45.1936 19.3997 44.9042 19.1962 44.7242C18.9928 44.5443 18.6682 44.4543 18.2222 44.4543C17.9406 44.4543 17.6511 44.4895 17.3538 44.5599C17.0643 44.6303 16.7435 44.7359 16.3915 44.8768L15.9455 43.8206C16.3523 43.6485 16.7553 43.5233 17.1543 43.445C17.5533 43.359 17.9601 43.316 18.3748 43.316C19.2588 43.316 19.9121 43.5037 20.3346 43.8793C20.7649 44.2548 20.98 44.8337 20.98 45.6161V49.7939H19.9238L19.6305 48.9138H19.5835C19.4036 49.1407 19.2119 49.3284 19.0085 49.4771C18.8129 49.6257 18.5938 49.7353 18.3513 49.8057C18.1166 49.8761 17.8506 49.9113 17.5533 49.9113ZM18.0344 48.7964C18.4491 48.7964 18.7933 48.6712 19.0672 48.4209C19.3488 48.1705 19.4896 47.8028 19.4896 47.3178V46.8014L18.7268 46.8249C18.1322 46.8483 17.7019 46.95 17.4359 47.13C17.1699 47.3099 17.0369 47.5681 17.0369 47.9045C17.0369 48.2018 17.123 48.4248 17.2951 48.5735C17.475 48.7221 17.7215 48.7964 18.0344 48.7964ZM23.9877 49.7939V44.5716H21.9927V43.4333H27.4614V44.5716H25.4547V49.7939H23.9877ZM28.6847 49.7939V43.4333H30.1633V45.5809H31.1726C32.1114 45.5809 32.8117 45.753 33.2733 46.0973C33.7348 46.4415 33.9656 46.9579 33.9656 47.6463C33.9656 48.3505 33.7309 48.8864 33.2615 49.2541C32.7999 49.614 32.1114 49.7939 31.1961 49.7939H28.6847ZM30.1633 48.6556H31.1257C31.5716 48.6556 31.9041 48.5735 32.1232 48.4092C32.3422 48.2449 32.4518 48.0023 32.4518 47.6816C32.4518 47.3608 32.3461 47.1261 32.1349 46.9774C31.9237 46.821 31.5794 46.7427 31.1022 46.7427H30.1633V48.6556ZM34.584 49.7939L36.6846 46.7779L36.8841 47.353C36.2973 47.2747 35.8397 47.0635 35.5111 46.7192C35.1903 46.375 35.0299 45.933 35.0299 45.3931C35.0299 44.7672 35.2411 44.2861 35.6636 43.9497C36.0939 43.6054 36.6885 43.4333 37.4474 43.4333H40.4165V49.7939H38.9261V47.4351H37.823L36.2621 49.7939H34.584ZM37.776 46.3554H38.9261V44.513H37.6587C37.2909 44.513 37.0132 44.5873 36.8254 44.7359C36.6377 44.8846 36.5477 45.1076 36.5555 45.4049C36.5477 45.7178 36.6455 45.9564 36.8489 46.1207C37.0602 46.2772 37.3692 46.3554 37.776 46.3554Z" fill="#00573F"/>
<path d="M7.54425 68.8407C6.60541 68.8407 5.71351 68.6865 4.86856 68.378C4.0236 68.0561 3.27253 67.6068 2.61534 67.0301C1.95815 66.44 1.44179 65.7426 1.06625 64.9378C0.690718 64.1197 0.50295 63.2144 0.50295 62.2219C0.50295 61.3099 0.657188 60.4381 0.965664 59.6066C1.27414 58.7616 1.73015 58.0105 2.33369 57.3534C2.95064 56.6962 3.70842 56.1731 4.60702 55.7842C5.50563 55.3952 6.54505 55.2007 7.72531 55.2007C8.66415 55.2007 9.55605 55.3617 10.401 55.6836C11.246 55.992 11.997 56.4413 12.6542 57.0315C13.3114 57.6082 13.8278 58.3056 14.2033 59.1237C14.5788 59.9285 14.7666 60.8271 14.7666 61.8196C14.7666 62.7182 14.6124 63.5899 14.3039 64.4349C13.9954 65.2798 13.5327 66.0309 12.9158 66.6881C12.3122 67.3453 11.5611 67.8684 10.6625 68.2573C9.76393 68.6463 8.7245 68.8407 7.54425 68.8407ZM7.90637 67.8952C8.61721 67.8952 9.20734 67.6806 9.67676 67.2514C10.1596 66.8222 10.5217 66.2321 10.7631 65.481C11.0045 64.7165 11.1253 63.8448 11.1253 62.8657C11.1253 62.061 11.0515 61.263 10.904 60.4716C10.7564 59.6803 10.5284 58.9628 10.2199 58.319C9.91147 57.6618 9.51581 57.1388 9.03298 56.7498C8.56356 56.3609 7.99355 56.1664 7.32295 56.1664C6.62553 56.1664 6.0354 56.381 5.55257 56.8102C5.08315 57.2394 4.72773 57.8295 4.48631 58.5806C4.25831 59.3316 4.14431 60.1967 4.14431 61.1758C4.14431 61.9805 4.21807 62.7785 4.36561 63.5698C4.51314 64.3611 4.73444 65.0854 5.0295 65.7426C5.33798 66.3863 5.72692 66.9094 6.19634 67.3118C6.67918 67.7007 7.24918 67.8952 7.90637 67.8952ZM16.9351 68.6194C16.8546 68.6194 16.7742 68.5926 16.6937 68.539C16.6132 68.4853 16.573 68.4116 16.573 68.3177C16.573 68.0897 16.7004 67.9421 16.9552 67.8751C17.4649 67.7678 17.8136 67.6337 18.0014 67.4727C18.1891 67.3118 18.283 67.0234 18.283 66.6076V57.4741C18.283 57.0449 18.1958 56.7431 18.0215 56.5688C17.8605 56.381 17.5454 56.2335 17.0759 56.1262C16.915 56.0859 16.801 56.0256 16.7339 55.9451C16.6803 55.8646 16.6535 55.7842 16.6535 55.7037C16.6535 55.6098 16.687 55.536 16.754 55.4824C16.8345 55.4153 16.9351 55.3818 17.0558 55.3818C17.3509 55.3818 17.6728 55.3885 18.0215 55.4019C18.3702 55.4153 18.7122 55.4354 19.0475 55.4623C19.3828 55.4757 19.6846 55.4824 19.9528 55.4824C20.2747 55.4824 20.5563 55.469 20.7978 55.4421C21.0526 55.4019 21.3342 55.3684 21.6427 55.3416C21.9512 55.3013 22.3536 55.2812 22.8498 55.2812C24.4995 55.2812 25.8071 55.6366 26.7728 56.3475C27.7385 57.0449 28.2213 58.0038 28.2213 59.2243C28.2213 60.0693 28.0402 60.8539 27.6781 61.5781C27.316 62.289 26.7661 62.8657 26.0284 63.3083C25.3042 63.7375 24.3855 63.9521 23.2723 63.9521C22.9102 63.9521 22.6352 63.8984 22.4474 63.7911C22.2597 63.6838 22.1658 63.5497 22.1658 63.3888C22.1658 63.2815 22.2127 63.201 22.3066 63.1473C22.4005 63.0937 22.481 63.0669 22.548 63.0669C22.709 63.0669 22.8364 63.087 22.9303 63.1272C23.0376 63.154 23.1784 63.1675 23.3528 63.1675C23.8624 63.1675 24.2446 62.859 24.4995 62.242C24.7677 61.6117 24.9018 60.8002 24.9018 59.8078C24.9018 58.5336 24.7208 57.6216 24.3587 57.0717C24.0099 56.5084 23.507 56.2267 22.8498 56.2267C22.4743 56.2267 22.1926 56.3139 22.0048 56.4883C21.8171 56.6626 21.7232 56.9309 21.7232 57.293L21.7031 66.5875C21.7031 67.0033 21.8171 67.2916 22.0451 67.4526C22.2865 67.6135 22.6956 67.7544 23.2723 67.8751C23.393 67.9019 23.4869 67.9488 23.5539 68.0159C23.621 68.0695 23.6545 68.1634 23.6545 68.2975C23.6545 68.3914 23.6277 68.4652 23.574 68.5188C23.5204 68.5725 23.4399 68.5993 23.3326 68.5993C23.051 68.5993 22.6956 68.5926 22.2664 68.5792C21.8372 68.5658 21.408 68.5524 20.9788 68.539C20.5631 68.5256 20.221 68.5188 19.9528 68.5188C19.6846 68.5188 19.3694 68.5256 19.0073 68.539C18.6586 68.5524 18.2964 68.5658 17.9209 68.5792C17.5588 68.606 17.2302 68.6194 16.9351 68.6194ZM30.4371 68.6597C30.3164 68.6597 30.2225 68.6261 30.1555 68.5591C30.0884 68.492 30.0549 68.4183 30.0549 68.3378C30.0549 68.1366 30.189 67.9958 30.4572 67.9153C30.8998 67.7812 31.2083 67.6404 31.3827 67.4928C31.5704 67.3453 31.6643 67.0636 31.6643 66.6479V57.4741C31.6643 57.0449 31.5771 56.7431 31.4028 56.5688C31.2418 56.381 30.9267 56.2335 30.4572 56.1262C30.2963 56.0859 30.1823 56.0256 30.1152 55.9451C30.0616 55.8646 30.0348 55.7842 30.0348 55.7037C30.0348 55.6098 30.0683 55.536 30.1353 55.4824C30.2158 55.4153 30.3164 55.3818 30.4371 55.3818C30.7322 55.3818 31.0541 55.3885 31.4028 55.4019C31.7515 55.4153 32.0935 55.4354 32.4288 55.4623C32.7641 55.4757 33.0659 55.4824 33.3341 55.4824C34.0852 55.4824 34.8899 55.4757 35.7483 55.4623C36.6066 55.4489 37.3644 55.4354 38.0216 55.422C38.4508 55.422 38.7995 55.3952 39.0677 55.3416C39.3494 55.2879 39.517 55.2611 39.5707 55.2611C39.678 55.2611 39.7853 55.2946 39.8926 55.3617C40.0133 55.4153 40.0803 55.5226 40.0938 55.6836C40.1474 56.1798 40.2145 56.6693 40.2949 57.1522C40.3888 57.6216 40.4358 58.0374 40.4358 58.3995C40.4358 58.5336 40.4089 58.6342 40.3553 58.7013C40.3016 58.7683 40.2413 58.8019 40.1742 58.8019C40.1072 58.8019 40.0334 58.775 39.9529 58.7214C39.8725 58.6677 39.8054 58.5806 39.7517 58.4598C39.6042 58.0977 39.4701 57.796 39.3494 57.5545C39.2421 57.2997 39.1147 57.0985 38.9671 56.951C38.8196 56.8035 38.6318 56.6626 38.4038 56.5285C38.1758 56.381 37.8741 56.3072 37.4985 56.3072H36.2311C35.8958 56.3072 35.6208 56.3877 35.4063 56.5486C35.1917 56.7096 35.0844 56.9376 35.0844 57.2326V60.9344C35.0844 61.1087 35.1313 61.2361 35.2252 61.3166C35.3191 61.3837 35.4465 61.4172 35.6074 61.4172H37.3175C37.6662 61.4172 37.9143 61.2898 38.0618 61.035C38.2228 60.7801 38.3636 60.4918 38.4843 60.1699C38.5916 59.9285 38.7324 59.8078 38.9068 59.8078C38.9738 59.8078 39.0342 59.848 39.0879 59.9285C39.1415 60.0089 39.1616 60.1229 39.1482 60.2705C39.1348 60.4582 39.1147 60.646 39.0879 60.8338C39.0744 61.0215 39.061 61.2093 39.0476 61.3971C39.0476 61.5714 39.0476 61.7525 39.0476 61.9403C39.0476 62.1146 39.0476 62.2957 39.0476 62.4834C39.061 62.6578 39.0744 62.8389 39.0879 63.0266C39.1013 63.2144 39.1147 63.4089 39.1281 63.6101C39.1549 63.8112 39.1415 63.9588 39.0879 64.0527C39.0476 64.1331 38.994 64.1734 38.9269 64.1734C38.6989 64.1734 38.538 64.0124 38.4441 63.6905C38.3234 63.2613 38.1825 62.9327 38.0216 62.7047C37.8741 62.4767 37.6729 62.3627 37.4181 62.3627H35.527C35.3794 62.3627 35.2654 62.403 35.185 62.4834C35.1179 62.5639 35.0844 62.6779 35.0844 62.8255V66.6278C35.0844 67.0033 35.1648 67.2715 35.3258 67.4325C35.4867 67.58 35.7349 67.6538 36.0702 67.6538H37.8607C38.1289 67.6538 38.3904 67.6202 38.6453 67.5532C38.9135 67.4727 39.1415 67.352 39.3293 67.1911C39.5573 67.0033 39.7652 66.7619 39.9529 66.4668C40.1541 66.1717 40.3285 65.8767 40.476 65.5816C40.5296 65.4743 40.5833 65.4073 40.6369 65.3804C40.704 65.3536 40.7778 65.3402 40.8582 65.3402C40.9387 65.3402 40.9924 65.3871 41.0192 65.481C41.046 65.5615 41.0594 65.6487 41.0594 65.7426C41.0594 65.984 41.0259 66.2455 40.9588 66.5272C40.8918 66.8088 40.8046 67.1106 40.6973 67.4325C40.6034 67.741 40.5095 68.0628 40.4156 68.3981C40.3888 68.492 40.3285 68.5524 40.2346 68.5792C40.1407 68.6194 40.0401 68.6396 39.9328 68.6396C39.8657 68.6396 39.6042 68.6328 39.1482 68.6194C38.6922 68.6194 38.1222 68.6127 37.4382 68.5993C36.7676 68.5859 36.0634 68.5725 35.3258 68.5591C34.6015 68.5591 33.9376 68.5591 33.3341 68.5591C33.0659 68.5591 32.7574 68.5658 32.4087 68.5792C32.06 68.5926 31.7113 68.606 31.3625 68.6194C31.0138 68.6463 30.7054 68.6597 30.4371 68.6597ZM42.8529 68.6999C42.7054 68.6999 42.5645 68.6731 42.4304 68.6194C42.3097 68.5792 42.2494 68.492 42.2494 68.3579C42.2494 68.2238 42.303 68.1366 42.4103 68.0964C42.531 68.0427 42.6517 67.9958 42.7724 67.9555C43.0407 67.8751 43.2955 67.7678 43.5369 67.6337C43.7917 67.4861 44.0466 67.2916 44.3014 67.0502C44.5696 66.7954 44.858 66.4668 45.1665 66.0645L47.6007 62.9059C47.7751 62.6779 47.8623 62.4499 47.8623 62.2219C47.8623 61.9805 47.7684 61.7324 47.5806 61.4775L44.6836 57.4137C44.5629 57.2259 44.4355 57.0516 44.3014 56.8906C44.1673 56.7163 44.0063 56.562 43.8186 56.4279C43.6442 56.2938 43.4229 56.1932 43.1547 56.1262C43.034 56.0859 42.9267 56.039 42.8328 55.9853C42.7523 55.9317 42.7121 55.8378 42.7121 55.7037C42.7121 55.5964 42.7523 55.5226 42.8328 55.4824C42.9133 55.4287 43.0004 55.4019 43.0943 55.4019C43.7649 55.4019 44.4355 55.4287 45.1061 55.4824C45.7767 55.5226 46.4406 55.536 47.0978 55.5226C47.5404 55.5226 47.9763 55.5025 48.4055 55.4623C48.8347 55.4086 49.2974 55.3818 49.7936 55.3818C49.9009 55.3818 50.0149 55.4086 50.1356 55.4623C50.2697 55.5159 50.3368 55.5897 50.3368 55.6836C50.3368 55.8043 50.2697 55.9049 50.1356 55.9853C50.0149 56.0524 49.8942 56.0993 49.7735 56.1262C49.3577 56.22 49.0492 56.3273 48.8481 56.448C48.6469 56.5553 48.5463 56.723 48.5463 56.951C48.5463 57.1119 48.6335 57.3064 48.8078 57.5344L50.7392 60.1699C50.8599 60.3308 50.9739 60.4247 51.0812 60.4515C51.1885 60.4649 51.3092 60.3845 51.4433 60.2101L52.9924 58.0374C53.1801 57.7825 53.3076 57.5679 53.3746 57.3936C53.4417 57.2058 53.4752 57.0449 53.4752 56.9108C53.4752 56.723 53.4081 56.5688 53.274 56.448C53.1399 56.3273 52.9119 56.22 52.59 56.1262C52.4559 56.0859 52.3218 56.0323 52.1877 55.9652C52.0535 55.8982 51.9865 55.8043 51.9865 55.6836C51.9865 55.5897 52.0468 55.5226 52.1675 55.4824C52.3017 55.4287 52.4559 55.4019 52.6302 55.4019C52.9253 55.4019 53.16 55.4086 53.3344 55.422C53.5087 55.4354 53.6764 55.4489 53.8373 55.4623C54.0117 55.4757 54.233 55.4824 54.5012 55.4824C54.8902 55.4824 55.2121 55.4623 55.4669 55.422C55.7351 55.3684 56.0771 55.3416 56.4929 55.3416C56.6404 55.3416 56.788 55.3684 56.9355 55.422C57.083 55.4623 57.1568 55.5494 57.1568 55.6836C57.1568 55.8177 57.0897 55.9116 56.9556 55.9652C56.8215 56.0055 56.6941 56.0457 56.5734 56.0859C56.2917 56.1798 55.9967 56.3273 55.6882 56.5285C55.3797 56.7297 55.1249 56.9577 54.9237 57.2125L52.0669 60.7734C51.9194 60.9478 51.8389 61.1154 51.8255 61.2764C51.8255 61.4373 51.9127 61.6385 52.0871 61.8799L55.5071 66.7082C55.6949 66.9765 55.9028 67.2179 56.1308 67.4325C56.3588 67.6337 56.5868 67.7678 56.8148 67.8348C56.9355 67.8617 57.083 67.922 57.2574 68.0159C57.4452 68.1098 57.539 68.2238 57.539 68.3579C57.539 68.4518 57.4921 68.5256 57.3982 68.5792C57.3043 68.6328 57.1836 68.6597 57.0361 68.6597C56.4728 68.6597 55.9564 68.6463 55.487 68.6194C55.0176 68.606 54.575 68.5859 54.1592 68.5591C53.7434 68.5323 53.3076 68.5256 52.8515 68.539C52.4492 68.539 52.0468 68.5457 51.6445 68.5591C51.2421 68.5859 50.8263 68.5993 50.3972 68.5993C50.2899 68.5993 50.1691 68.5725 50.035 68.5188C49.9143 68.4652 49.854 68.3914 49.854 68.2975C49.854 68.1768 49.9143 68.083 50.035 68.0159C50.1691 67.9354 50.2966 67.8818 50.4173 67.855C50.6855 67.7879 50.9537 67.7007 51.222 67.5934C51.4902 67.4861 51.6243 67.3185 51.6243 67.0905C51.6243 67.0234 51.6109 66.9563 51.5841 66.8893C51.5573 66.8222 51.5171 66.7485 51.4634 66.668L49.2504 63.5698C49.0761 63.3016 48.9151 63.1473 48.7676 63.1071C48.6335 63.0669 48.4658 63.201 48.2646 63.5095L46.5546 66.0443C46.3534 66.3394 46.2327 66.5875 46.1925 66.7887C46.1657 66.9765 46.159 67.1173 46.1724 67.2112C46.1992 67.3855 46.2864 67.5398 46.4339 67.6739C46.5949 67.7946 46.8161 67.8751 47.0978 67.9153C47.2319 67.9287 47.366 67.9757 47.5002 68.0561C47.6343 68.1366 47.7013 68.2372 47.7013 68.3579C47.7013 68.4518 47.641 68.5188 47.5203 68.5591C47.3996 68.6127 47.2655 68.6396 47.1179 68.6396C46.6753 68.6396 46.2663 68.6261 45.8907 68.5993C45.5152 68.5859 45.2201 68.5792 45.0055 68.5792C44.6166 68.5792 44.2679 68.5993 43.9594 68.6396C43.6509 68.6798 43.2821 68.6999 42.8529 68.6999ZM65.2813 68.8407C64.3425 68.8407 63.4506 68.6865 62.6056 68.378C61.7607 68.0561 61.0096 67.6068 60.3524 67.0301C59.6952 66.44 59.1789 65.7426 58.8033 64.9378C58.4278 64.1197 58.24 63.2144 58.24 62.2219C58.24 61.3099 58.3943 60.4381 58.7027 59.6066C59.0112 58.7616 59.4672 58.0105 60.0708 57.3534C60.6877 56.6962 61.4455 56.1731 62.3441 55.7842C63.2427 55.3952 64.2821 55.2007 65.4624 55.2007C66.4012 55.2007 67.2931 55.3617 68.1381 55.6836C68.983 55.992 69.7341 56.4413 70.3913 57.0315C71.0485 57.6082 71.5648 58.3056 71.9404 59.1237C72.3159 59.9285 72.5037 60.8271 72.5037 61.8196C72.5037 62.7182 72.3494 63.5899 72.041 64.4349C71.7325 65.2798 71.2698 66.0309 70.6528 66.6881C70.0493 67.3453 69.2982 67.8684 68.3996 68.2573C67.501 68.6463 66.4616 68.8407 65.2813 68.8407ZM65.6434 67.8952C66.3543 67.8952 66.9444 67.6806 67.4138 67.2514C67.8967 66.8222 68.2588 66.2321 68.5002 65.481C68.7416 64.7165 68.8623 63.8448 68.8623 62.8657C68.8623 62.061 68.7886 61.263 68.641 60.4716C68.4935 59.6803 68.2655 58.9628 67.957 58.319C67.6485 57.6618 67.2529 57.1388 66.7701 56.7498C66.3006 56.3609 65.7306 56.1664 65.06 56.1664C64.3626 56.1664 63.7725 56.381 63.2896 56.8102C62.8202 57.2394 62.4648 57.8295 62.2234 58.5806C61.9954 59.3316 61.8814 60.1967 61.8814 61.1758C61.8814 61.9805 61.9551 62.7785 62.1027 63.5698C62.2502 64.3611 62.4715 65.0854 62.7666 65.7426C63.0751 66.3863 63.464 66.9094 63.9334 67.3118C64.4163 67.7007 64.9863 67.8952 65.6434 67.8952ZM74.7124 68.6597C74.5917 68.6597 74.4978 68.6261 74.4308 68.5591C74.3637 68.492 74.3302 68.4183 74.3302 68.3378C74.3302 68.1366 74.4643 67.9958 74.7325 67.9153C75.1751 67.7812 75.4836 67.6404 75.658 67.4928C75.8457 67.3453 75.9396 67.0636 75.9396 66.6479V57.4741C75.9396 57.0449 75.8524 56.7431 75.6781 56.5688C75.5171 56.381 75.202 56.2335 74.7325 56.1262C74.5716 56.0859 74.4576 56.0256 74.3905 55.9451C74.3369 55.8646 74.3101 55.7842 74.3101 55.7037C74.3101 55.6098 74.3436 55.536 74.4107 55.4824C74.4911 55.4153 74.5917 55.3818 74.7124 55.3818C75.155 55.3818 75.5238 55.3952 75.8189 55.422C76.114 55.4489 76.3956 55.4757 76.6639 55.5025C76.9321 55.5293 77.2406 55.5427 77.5893 55.5427C77.9112 55.5427 78.2062 55.5293 78.4745 55.5025C78.7427 55.4623 79.0378 55.4287 79.3597 55.4019C79.695 55.3617 80.104 55.3416 80.5869 55.3416C82.1829 55.3416 83.3967 55.5696 84.2282 56.0256C85.0732 56.4682 85.4957 57.2394 85.4957 58.3391C85.4957 58.7415 85.3951 59.1304 85.1939 59.506C85.0061 59.8815 84.7446 60.2034 84.4093 60.4716C84.1947 60.646 83.96 60.8002 83.7052 60.9344C83.4638 61.0551 83.2022 61.149 82.9206 61.216C82.8669 61.2294 82.8401 61.263 82.8401 61.3166C82.8401 61.3703 82.8669 61.4038 82.9206 61.4172C83.2827 61.4843 83.6515 61.5848 84.0271 61.719C84.416 61.8397 84.7781 62.0207 85.1134 62.2621C85.4487 62.5036 85.717 62.8187 85.9181 63.2077C86.1193 63.5832 86.2199 64.0661 86.2199 64.6562C86.2199 65.4073 86.0992 66.0041 85.8578 66.4467C85.6298 66.8893 85.3481 67.2246 85.0128 67.4526C84.6775 67.6806 84.3691 67.8684 84.0874 68.0159C83.6448 68.2305 83.1419 68.3914 82.5786 68.4987C82.0153 68.5926 81.3447 68.6396 80.5668 68.6396C80.0571 68.6396 79.5676 68.6261 79.0981 68.5993C78.6287 68.5725 78.1325 68.5591 77.6094 68.5591C77.3412 68.5591 77.026 68.5658 76.6639 68.5792C76.3152 68.5926 75.9664 68.606 75.6177 68.6194C75.2824 68.6463 74.9807 68.6597 74.7124 68.6597ZM80.5064 67.4727C80.8819 67.4727 81.2239 67.3587 81.5324 67.1307C81.8543 66.8893 82.1091 66.5674 82.2969 66.165C82.4847 65.7627 82.5786 65.3134 82.5786 64.8171C82.5786 64.3611 82.5249 63.9856 82.4176 63.6905C82.3237 63.3955 82.203 63.1608 82.0555 62.9864C81.9214 62.7986 81.794 62.6578 81.6732 62.5639C81.5794 62.47 81.405 62.3762 81.1502 62.2823C80.9088 62.175 80.607 62.1213 80.2449 62.1213C80.0705 62.1213 79.876 62.175 79.6615 62.2823C79.4603 62.3762 79.3597 62.5371 79.3597 62.7651V66.2254C79.3597 66.6278 79.4603 66.9362 79.6615 67.1508C79.8626 67.3654 80.1443 67.4727 80.5064 67.4727ZM80.1443 61.1557C80.4528 61.1557 80.7277 61.1221 80.9691 61.0551C81.2105 60.9746 81.452 60.8271 81.6934 60.6125C81.7873 60.5186 81.908 60.3308 82.0555 60.0492C82.203 59.7541 82.2768 59.3383 82.2768 58.8019C82.2768 58.1983 82.203 57.7155 82.0555 57.3534C81.9214 56.9778 81.7135 56.7096 81.4318 56.5486C81.1502 56.3743 80.8015 56.2871 80.3857 56.2871C80.0504 56.2871 79.7956 56.3609 79.6212 56.5084C79.4469 56.6425 79.3597 56.8504 79.3597 57.1321V60.4515C79.3597 60.6929 79.4469 60.874 79.6212 60.9947C79.809 61.102 79.9833 61.1557 80.1443 61.1557ZM88.569 68.6597C88.4483 68.6597 88.3544 68.6261 88.2874 68.5591C88.2203 68.492 88.1868 68.4183 88.1868 68.3378C88.1868 68.1366 88.3209 67.9958 88.5891 67.9153C89.0317 67.7812 89.3402 67.6404 89.5145 67.4928C89.7023 67.3453 89.7962 67.0636 89.7962 66.6479V57.4741C89.7962 57.0449 89.709 56.7431 89.5347 56.5688C89.3603 56.3944 89.0049 56.2469 88.4684 56.1262C88.2136 56.0591 88.0862 55.9116 88.0862 55.6836C88.0862 55.5897 88.1264 55.5159 88.2069 55.4623C88.2874 55.4086 88.3678 55.3818 88.4483 55.3818C88.7434 55.3818 89.072 55.3885 89.4341 55.4019C89.8096 55.4153 90.1717 55.4354 90.5204 55.4623C90.8826 55.4757 91.1978 55.4824 91.466 55.4824C91.7342 55.4824 92.0561 55.4757 92.4317 55.4623C92.8072 55.4489 93.1894 55.4354 93.5784 55.422C93.9673 55.4086 94.3026 55.4019 94.5843 55.4019C94.6916 55.4019 94.7721 55.4287 94.8257 55.4824C94.8793 55.5226 94.9062 55.5964 94.9062 55.7037C94.9062 55.8378 94.8726 55.9317 94.8056 55.9853C94.7385 56.039 94.6446 56.0859 94.5239 56.1262C93.974 56.2871 93.6119 56.4548 93.4376 56.6291C93.2766 56.8035 93.1961 57.0918 93.1961 57.4942V60.3711C93.1961 60.8405 93.4241 61.0752 93.8802 61.0752C93.907 61.0752 93.9338 61.0752 93.9606 61.0752C94.0009 61.0752 94.0478 61.0685 94.1015 61.0551C94.2758 61.0282 94.5038 61.0014 94.7855 60.9746C95.0805 60.9344 95.4024 60.9142 95.7511 60.9142C97.0119 60.9142 98.011 61.2361 98.7487 61.8799C99.4998 62.5103 99.8753 63.4022 99.8753 64.5556C99.8753 65.3201 99.7546 65.9303 99.5132 66.3863C99.2718 66.8289 98.9901 67.1642 98.6682 67.3922C98.3463 67.6202 98.058 67.808 97.8032 67.9555C97.3874 68.197 96.918 68.3713 96.3949 68.4786C95.8852 68.5859 95.2884 68.6396 94.6044 68.6396C94.5239 68.6396 94.3898 68.6328 94.202 68.6194C94.0277 68.606 93.7326 68.5926 93.3169 68.5792C92.9011 68.5658 92.2841 68.5591 91.466 68.5591C91.1978 68.5591 90.8893 68.5658 90.5406 68.5792C90.1919 68.5926 89.8431 68.606 89.4944 68.6194C89.1457 68.6463 88.8372 68.6597 88.569 68.6597ZM94.202 67.7946C94.5373 67.7946 94.8592 67.6471 95.1677 67.352C95.4762 67.0435 95.7243 66.6479 95.9121 66.165C96.1133 65.6822 96.2138 65.1726 96.2138 64.6361C96.2138 64.1532 96.1602 63.7576 96.0529 63.4491C95.9456 63.1406 95.8115 62.8925 95.6505 62.7047C95.503 62.517 95.3689 62.3762 95.2482 62.2823C95.1409 62.2018 94.9732 62.1146 94.7452 62.0207C94.5172 61.9134 94.2423 61.8598 93.9204 61.8598C93.8667 61.8598 93.8131 61.8598 93.7594 61.8598C93.7192 61.8598 93.6723 61.8732 93.6186 61.9C93.4979 61.9268 93.3973 61.9872 93.3169 62.0811C93.2498 62.175 93.2163 62.3158 93.2163 62.5036V66.5674C93.2163 66.7552 93.2297 66.9295 93.2565 67.0905C93.2967 67.238 93.3638 67.3654 93.4577 67.4727C93.5516 67.5666 93.6589 67.6471 93.7796 67.7141C93.9003 67.7678 94.0411 67.7946 94.202 67.7946ZM99.9357 68.6194C99.8552 68.6194 99.7747 68.5926 99.6943 68.539C99.6138 68.4853 99.5735 68.4116 99.5735 68.3177C99.5735 68.0897 99.701 67.9421 99.9558 67.8751C100.465 67.7678 100.814 67.6337 101.002 67.4727C101.19 67.3118 101.284 67.0234 101.284 66.6076V57.4741C101.284 57.0449 101.196 56.7431 101.022 56.5688C100.848 56.3944 100.492 56.2469 99.9558 56.1262C99.701 56.0591 99.5735 55.9116 99.5735 55.6836C99.5735 55.5897 99.6138 55.5159 99.6943 55.4623C99.7747 55.4086 99.8552 55.3818 99.9357 55.3818C100.231 55.3818 100.559 55.3885 100.921 55.4019C101.297 55.4153 101.659 55.4354 102.008 55.4623C102.37 55.4757 102.685 55.4824 102.953 55.4824C103.222 55.4824 103.543 55.4757 103.919 55.4623C104.295 55.4489 104.677 55.4354 105.066 55.422C105.455 55.4086 105.79 55.4019 106.072 55.4019C106.179 55.4019 106.259 55.4287 106.313 55.4824C106.367 55.5226 106.394 55.5964 106.394 55.7037C106.394 55.8378 106.36 55.9317 106.293 55.9853C106.226 56.039 106.132 56.0859 106.011 56.1262C105.461 56.2871 105.106 56.4548 104.945 56.6291C104.784 56.8035 104.704 57.0918 104.704 57.4942V66.5875C104.704 66.9631 104.791 67.238 104.965 67.4124C105.14 67.5733 105.488 67.7275 106.011 67.8751C106.132 67.9153 106.226 67.9622 106.293 68.0159C106.36 68.0695 106.394 68.1634 106.394 68.2975C106.394 68.3914 106.367 68.4652 106.313 68.5188C106.259 68.5725 106.179 68.5993 106.072 68.5993C105.79 68.5993 105.455 68.5926 105.066 68.5792C104.677 68.5658 104.295 68.5524 103.919 68.539C103.543 68.5256 103.222 68.5188 102.953 68.5188C102.685 68.5188 102.37 68.5256 102.008 68.539C101.659 68.5524 101.297 68.5658 100.921 68.5792C100.559 68.606 100.231 68.6194 99.9357 68.6194Z" fill="#00573F"/>
<path d="M48.645 25.7099L76.2806 3.03453M101.009 27.1541L69.9938 0.749226M47.9187 22.9994L75.5543 0.323975" stroke="#00573F" stroke-width="0.83825"/>
<path d="M97.2369 52.7208L97.2369 16.676" stroke="#00573F" stroke-width="0.83825"/>
<path d="M53.6479 51.8825L53.6479 11.6465" stroke="#00573F" stroke-width="0.83825"/>
<path d="M65.3834 45.5895L65.3834 35.5305" stroke="#00573F" stroke-width="0.83825"/>
<path d="M57.001 47.2722L57.001 24.6394" stroke="#00573F" stroke-width="1.6765"/>
<path d="M48.645 31.6723L74.8933 10.8083L99.7045 31.6723" stroke="#00573F" stroke-width="3.37961"/>
<path d="M48.6184 48.5295L102.266 48.5295" stroke="#00573F" stroke-width="2.51475"/>
<path d="M50.3348 38.7832H102.306" stroke="#00573F" stroke-width="0.83825"/>
<path d="M50.3348 41.8235H102.306" stroke="#00573F" stroke-width="0.83825"/>
<rect x="70.413" y="24.2202" width="4.19125" height="4.19125" fill="#00573F"/>
<rect x="70.413" y="29.2498" width="4.19125" height="4.19125" fill="#00573F"/>
<rect x="75.4424" y="29.2498" width="4.19125" height="4.19125" fill="#00573F"/>
<rect x="75.4424" y="24.2202" width="4.19125" height="4.19125" fill="#00573F"/>
<path d="M93.8839 26.3159V48.1104" stroke="#00573F" stroke-width="1.6765"/>
</svg>
