<svg width="24" height="24" viewBox="0 0 24 24" fill="none" xmlns="http://www.w3.org/2000/svg">
<path d="M19.9995 17.2498C20.4136 17.2498 20.7494 17.5857 20.7495 17.9998C20.7495 18.414 20.4137 18.7498 19.9995 18.7498H3.99951C3.58546 18.7496 3.24951 18.4139 3.24951 17.9998C3.24964 17.5858 3.58554 17.2499 3.99951 17.2498H19.9995ZM19.9995 11.2498C20.4136 11.2498 20.7494 11.5857 20.7495 11.9998C20.7495 12.414 20.4137 12.7498 19.9995 12.7498H3.99951C3.58546 12.7496 3.24951 12.4139 3.24951 11.9998C3.24964 11.5858 3.58554 11.2499 3.99951 11.2498H19.9995ZM19.9995 5.24976C20.4136 5.24976 20.7494 5.58565 20.7495 5.99976C20.7495 6.41397 20.4137 6.74976 19.9995 6.74976H3.99951C3.58546 6.74956 3.24951 6.41385 3.24951 5.99976C3.24964 5.58577 3.58554 5.24995 3.99951 5.24976H19.9995Z" fill="#686868"/>
</svg>
