<svg width="214" height="151" viewBox="0 0 214 151" fill="none" xmlns="http://www.w3.org/2000/svg">
<path d="M3 52C8.77215 61.0555 24.4532 73.7332 41 52" stroke="#253746" stroke-width="6" stroke-linecap="round"/>
<path d="M131 7C140.167 10.5 160.8 21 170 35" stroke="#253746" stroke-width="6" stroke-linecap="round"/>
<circle cx="111.5" cy="78.5" r="58.5" fill="#D9D9D9" fill-opacity="0.1" stroke="#253746" stroke-width="6"/>
<circle cx="111" cy="78" r="43" fill="#D9D9D9" fill-opacity="0.1" stroke="#253746" stroke-width="6"/>
<path d="M41 51V14" stroke="#253746" stroke-width="6" stroke-linecap="round"/>
<path d="M3 51L3 14" stroke="#253746" stroke-width="6" stroke-linecap="round"/>
<path d="M16 97L16 66" stroke="#253746" stroke-width="6" stroke-linecap="round"/>
<path d="M28 97L28 66" stroke="#253746" stroke-width="6" stroke-linecap="round"/>
<path d="M33 148L33 99" stroke="#253746" stroke-width="6" stroke-linecap="round"/>
<path d="M11 148L11 99" stroke="#253746" stroke-width="6" stroke-linecap="round"/>
<path d="M211 148V3" stroke="#253746" stroke-width="6" stroke-linecap="round"/>
<path d="M198 148L198 97" stroke="#253746" stroke-width="6" stroke-linecap="round"/>
<path d="M188 97V31" stroke="#253746" stroke-width="6" stroke-linecap="round"/>
<path d="M189 97H211" stroke="#253746" stroke-width="6" stroke-linecap="round"/>
<path d="M198 106H211" stroke="#253746" stroke-width="6" stroke-linecap="round"/>
<path d="M198 148H211" stroke="#253746" stroke-width="6" stroke-linecap="round"/>
<path d="M33 99L11 99" stroke="#253746" stroke-width="6" stroke-linecap="round"/>
<path d="M33 148L11 148" stroke="#253746" stroke-width="6" stroke-linecap="round"/>
<path d="M29 48L29 15" stroke="#253746" stroke-width="6" stroke-linecap="round"/>
<path d="M16 48L16 15" stroke="#253746" stroke-width="6" stroke-linecap="round"/>
<path d="M41 14L3 14" stroke="#253746" stroke-width="6" stroke-linecap="round"/>
<path d="M211 3C204.015 5.03774 189.636 13.2906 188 30" stroke="#253746" stroke-width="6" stroke-linecap="round"/>
<path d="M120.059 4.2369C114.731 3.43239 101.645 2.44776 91.9269 4.94534" stroke="#253746" stroke-width="6" stroke-linecap="round"/>
</svg>
