<svg width="397" height="212" viewBox="0 0 397 212" fill="none" xmlns="http://www.w3.org/2000/svg">
<path d="M90 52C95.7722 61.0555 111.453 73.7332 128 52" stroke="#253746" stroke-width="6" stroke-linecap="round"/>
<path d="M218 7C227.167 10.5 247.8 21 257 35" stroke="#253746" stroke-width="6" stroke-linecap="round"/>
<circle cx="198.5" cy="78.5" r="58.5" fill="#D9D9D9" fill-opacity="0.1" stroke="#253746" stroke-width="6"/>
<circle cx="198" cy="78" r="43" fill="#D9D9D9" fill-opacity="0.1" stroke="#253746" stroke-width="6"/>
<path d="M128 51V14" stroke="#253746" stroke-width="6" stroke-linecap="round"/>
<path d="M90 51V14" stroke="#253746" stroke-width="6" stroke-linecap="round"/>
<path d="M103 97V66" stroke="#253746" stroke-width="6" stroke-linecap="round"/>
<path d="M115 97V66" stroke="#253746" stroke-width="6" stroke-linecap="round"/>
<path d="M120 148L120 99" stroke="#253746" stroke-width="6" stroke-linecap="round"/>
<path d="M98 148L98 99" stroke="#253746" stroke-width="6" stroke-linecap="round"/>
<path d="M298 148V3" stroke="#253746" stroke-width="6" stroke-linecap="round"/>
<path d="M285 148L285 97" stroke="#253746" stroke-width="6" stroke-linecap="round"/>
<path d="M275 97V31" stroke="#253746" stroke-width="6" stroke-linecap="round"/>
<path d="M276 97H298" stroke="#253746" stroke-width="6" stroke-linecap="round"/>
<path d="M285 106H298" stroke="#253746" stroke-width="6" stroke-linecap="round"/>
<path d="M285 148H298" stroke="#253746" stroke-width="6" stroke-linecap="round"/>
<path d="M120 99L98 99" stroke="#253746" stroke-width="6" stroke-linecap="round"/>
<path d="M120 148L98 148" stroke="#253746" stroke-width="6" stroke-linecap="round"/>
<path d="M116 48V15" stroke="#253746" stroke-width="6" stroke-linecap="round"/>
<path d="M103 48V15" stroke="#253746" stroke-width="6" stroke-linecap="round"/>
<path d="M128 14L90 14" stroke="#253746" stroke-width="6" stroke-linecap="round"/>
<path d="M298 3C291.015 5.03774 276.636 13.2906 275 30" stroke="#253746" stroke-width="6" stroke-linecap="round"/>
<path d="M207.059 4.2369C201.731 3.43239 188.645 2.44776 178.927 4.94534" stroke="#253746" stroke-width="6" stroke-linecap="round"/>
<path d="M37.76 168.2C36.3733 176.627 35.68 183.507 35.68 188.84C35.68 194.173 35.8933 198.893 36.32 203H18.88C17.0667 194.52 16.16 185.4 16.16 175.64C16.16 173.987 16.2133 171.507 16.32 168.2C11.7867 169.533 9.01333 172.6 8 177.4L0.08 176.92L2.96 163H56.16C55.0933 168.867 53.8667 173.667 52.48 177.4L44.4 176.92C44.6133 176.067 44.72 175.213 44.72 174.36C44.72 172.28 44.08 170.733 42.8 169.72C41.52 168.707 39.84 168.2 37.76 168.2ZM79.9262 193C79.9262 196.04 80.0596 199.373 80.3263 203H62.7263C60.5396 194.52 59.4463 185.507 59.4463 175.96C59.4463 171.107 59.7396 166.787 60.3263 163H103.686C105.233 169.027 106.086 176.2 106.246 184.52C98.3529 188.04 89.5796 190.333 79.9262 191.4V193ZM80.0063 185.88C83.4196 185.453 86.2729 184.6 88.5663 183.32C87.7129 177.667 85.4196 172.653 81.6863 168.28C80.8329 173.56 80.2729 179.427 80.0063 185.88ZM164.809 202.36V203H146.249C146.036 199.96 145.583 196.813 144.889 193.56C141.583 196.92 137.849 200.067 133.689 203H115.049C114.676 200.813 114.489 197.933 114.489 194.36C114.489 190.733 115.023 187.107 116.089 183.48C119.929 182.36 123.609 180.467 127.129 177.8C130.703 175.133 133.289 172.253 134.889 169.16C133.449 166.92 131.929 164.867 130.329 163H156.889C162.169 174.467 164.809 187.587 164.809 202.36ZM143.449 187.72C142.063 182.973 140.249 178.493 138.009 174.28C135.503 181.64 134.063 188.6 133.689 195.16C137.529 193.187 140.783 190.707 143.449 187.72ZM225.258 163L225.418 169.8C225.418 180.2 224.404 191.267 222.378 203H203.258C204.484 194.307 205.098 185.667 205.098 177.08C205.098 174.093 205.018 171.133 204.858 168.2H203.498C200.458 168.2 197.924 168.36 195.898 168.68V171.24C195.898 181.96 194.991 192.547 193.178 203H174.938C175.684 197.293 176.058 191.053 176.058 184.28C176.058 177.507 175.578 170.413 174.618 163H225.258ZM263.356 179.08L270.876 179.56C271.623 179.56 272.183 179.533 272.556 179.48L268.796 186.52H268.076C267.063 186.52 265.623 186.253 263.756 185.72C261.89 185.133 260.556 184.84 259.756 184.84C257.57 184.84 255.836 186.253 254.556 189.08C254.343 191.693 254.183 194.307 254.076 196.92C256.85 197.453 259.036 197.72 260.636 197.72H261.356C263.65 197.72 265.463 197.213 266.796 196.2C268.183 195.187 269.17 193.373 269.756 190.76L279.356 191.16C278.556 195.747 277.49 199.693 276.156 203H236.876C235.81 195.8 235.276 188.653 235.276 181.56C235.276 174.467 235.65 168.28 236.396 163H279.276C278.316 168.76 277.463 172.813 276.716 175.16C273.57 175.32 270.69 175.427 268.076 175.48C268.503 174.253 268.716 173.107 268.716 172.04C268.716 169.48 266.796 168.2 262.956 168.2C261.516 168.2 259.916 168.36 258.156 168.68C256.983 173.747 256.076 178.2 255.436 182.04C257.57 180.067 260.21 179.08 263.356 179.08ZM314.628 169.64L314.548 167.8C313.428 167.48 311.481 167.32 308.708 167.32C305.988 167.32 304.121 167.48 303.108 167.8C303.481 169.773 303.935 171.56 304.468 173.16C300.735 173.053 297.295 172.893 294.148 172.68C292.975 170.067 291.908 166.867 290.948 163.08C296.708 161.8 302.521 161.16 308.388 161.16C320.815 161.16 327.028 163.107 327.028 167C327.028 167.587 326.841 168.307 326.468 169.16C324.068 173.747 321.455 177.4 318.628 180.12C322.895 181.24 326.175 183.427 328.468 186.68C330.815 189.88 332.228 193.72 332.708 198.2C330.201 201.507 326.815 204.413 322.548 206.92C318.335 209.427 314.015 211.107 309.588 211.96C306.601 211.693 302.815 210.867 298.228 209.48C293.695 208.093 290.281 207.4 287.988 207.4C285.748 207.4 283.428 208.12 281.028 209.56C283.428 202.733 285.401 199.32 286.948 199.32C290.255 199.32 293.375 199.853 296.308 200.92C299.295 201.987 301.988 203.053 304.388 204.12C306.841 205.187 308.868 205.72 310.468 205.72C312.121 205.72 313.108 205.507 313.428 205.08C313.748 204.707 313.908 203.853 313.908 202.52C313.908 198.733 313.055 194.787 311.348 190.68C309.695 186.573 308.015 184.52 306.308 184.52C303.375 185.32 301.455 185.72 300.548 185.72C299.695 185.72 299.188 185.693 299.028 185.64C299.988 183.667 301.268 181.293 302.868 178.52H305.348C308.441 178.52 310.948 178.653 312.868 178.92C314.041 175.88 314.628 172.787 314.628 169.64ZM388.794 202.36V203H370.234C370.02 199.96 369.567 196.813 368.874 193.56C365.567 196.92 361.834 200.067 357.674 203H339.034C338.66 200.813 338.474 197.933 338.474 194.36C338.474 190.733 339.007 187.107 340.074 183.48C343.914 182.36 347.594 180.467 351.114 177.8C354.687 175.133 357.274 172.253 358.874 169.16C357.434 166.92 355.914 164.867 354.314 163H380.874C386.154 174.467 388.794 187.587 388.794 202.36ZM367.434 187.72C366.047 182.973 364.234 178.493 361.994 174.28C359.487 181.64 358.047 188.6 357.674 195.16C361.514 193.187 364.767 190.707 367.434 187.72Z" fill="#253746"/>
</svg>
