<svg width="0" height="0" class="hidden">
  <symbol fill="none" xmlns="http://www.w3.org/2000/svg" viewBox="0 0 32 32" id="2gis">
    <g clip-path="url(#clip0_2005_1346)">
      <path d="M0 0H32V32H0V0Z" fill="#19AA1E"></path>
      <path fill-rule="evenodd" clip-rule="evenodd" d="M0 0H32V10.4989L0 5.49962V0Z" fill="#FFB919"></path>
      <path fill-rule="evenodd" clip-rule="evenodd" d="M-0.00012207 28.4988L31.9999 23.4995V31.9991H-0.00012207V28.4988Z" fill="#82D714"></path>
      <path fill-rule="evenodd" clip-rule="evenodd" d="M-0.00012207 4.86749L11.1698 6.61279C12.5602 5.73238 14.2143 5.24952 15.9994 5.24952C18.4719 5.24952 20.6942 6.17549 22.3115 7.80056C22.5152 8.00612 22.7071 8.2204 22.8885 8.44341L31.9999 9.8668V11.1321L23.8135 9.85225C24.4262 11.0236 24.7471 12.3254 24.7491 13.6473C24.7491 15.3616 24.3661 17.071 23.573 18.7872L23.5497 18.8396L23.2123 19.5609H22.4172C20.7728 19.5609 19.6829 20.0525 18.9693 20.9242C18.4098 21.6078 18.086 22.5309 17.9774 23.5373L17.9735 23.5683L17.958 23.7293L17.9512 23.7991L17.9376 23.9358C17.8959 24.3857 17.8688 24.7668 17.8543 25.077L31.9999 22.8663V24.1317L-0.00012207 29.132V27.8666L14.161 25.654L14.1552 25.3699L14.1533 25.2904L14.1513 25.2487L14.1494 25.1856C14.1368 24.8414 14.1048 24.4003 14.0544 23.865L14.0447 23.7632L14.0272 23.5877C13.9264 22.5755 13.6074 21.6417 13.0479 20.9475C12.343 20.07 11.2638 19.5706 9.63197 19.5609H8.78647L8.45002 18.8396C7.64137 17.1059 7.24964 15.379 7.24964 13.6473C7.24964 11.4696 8.13296 9.36357 9.68821 7.80056L9.82395 7.66772L-0.00012207 6.13186V4.86749Z" fill="white"></path>
      <path fill-rule="evenodd" clip-rule="evenodd" d="M15.9994 6.49939C20.4673 6.49939 23.4993 9.93762 23.4993 13.6473C23.4993 15.1367 23.1745 16.6861 22.4162 18.3112C18.021 18.3112 16.936 21.4585 16.7305 23.4404L16.7169 23.5713C16.648 24.2791 16.6073 24.8463 16.5967 25.273L15.406 25.4591V25.4203C15.3894 24.7902 15.3467 24.161 15.278 23.5345L15.2751 23.4995C15.085 21.5225 14.0233 18.3112 9.58347 18.3112C8.82427 16.6861 8.49945 15.1367 8.49945 13.6473C8.49945 9.93762 11.5324 6.49939 15.9994 6.49939Z" fill="#0073FA"></path>
    </g>
    <defs>
      <clipPath id="clip0_2005_1346">
        <rect width="32" height="32" rx="5" fill="white"></rect>
      </clipPath>
    </defs>
  </symbol>
  <symbol fill="none" xmlns="http://www.w3.org/2000/svg" viewBox="0 0 24 24" id="area">
    <path d="M4 3L2 5M4 3L6 5M4 3V18C4 19.1046 4.89543 20 6 20H21M21 20L19 18M21 20L19 22" stroke="currentColor" stroke-width="1.5" stroke-linecap="round" stroke-linejoin="round"></path>
    <path d="M8 15V10M8 8V10M12.5 15L12.5 10M12.5 10C12.5 7.5 8 7.5 8 10M12.5 10C12.5 7.5 17 7.5 17 10V15" stroke="currentColor" stroke-width="1.5" stroke-linecap="round" stroke-linejoin="round"></path>
    <path d="M18 3.34615C18 2.57692 18.7751 2 19.5 2C20.2249 2 21 2.38462 21 3.34615C21 4.88462 18 7 18 7H21" stroke="currentColor" stroke-width="1.5" stroke-linecap="round" stroke-linejoin="round"></path>
  </symbol>
  <symbol fill="none" xmlns="http://www.w3.org/2000/svg" viewBox="0 0 24 24" id="arrow-down">
    <path d="M7 10H17L12 15L7 10Z" fill="currentColor"></path>
  </symbol>
  <symbol fill="none" xmlns="http://www.w3.org/2000/svg" viewBox="0 0 24 24" id="arrow-left">
    <path d="M14 7V17L9 12L14 7Z" fill="currentColor"></path>
  </symbol>
  <symbol fill="none" xmlns="http://www.w3.org/2000/svg" viewBox="0 0 24 24" id="arrow-up">
    <path d="M7 14H17L12 9L7 14Z" fill="currentColor"></path>
  </symbol>
  <symbol fill="none" xmlns="http://www.w3.org/2000/svg" viewBox="0 0 24 24" id="cancel">
    <path d="M18 6L6 18M6 6L18 18" stroke="currentColor" stroke-width="1.5" stroke-linecap="round" stroke-linejoin="round"></path>
  </symbol>
  <symbol fill="none" xmlns="http://www.w3.org/2000/svg" viewBox="0 0 24 24" id="cross">
    <path d="M19.7535 19.7535L12 12M4 4L12 12M12 12L4 20M12 12L20 4" stroke="currentColor" stroke-width="1.5" stroke-linecap="round"></path>
  </symbol>
  <symbol fill="none" xmlns="http://www.w3.org/2000/svg" viewBox="0 0 24 24" id="i-area">
    <path d="M4 3L2 5M4 3L6 5M4 3V18C4 19.1046 4.89543 20 6 20H21M21 20L19 18M21 20L19 22" stroke="currentColor" stroke-width="1.5" stroke-linecap="round" stroke-linejoin="round"></path>
    <path d="M8 15V10M8 8V10M12.5 15L12.5 10M12.5 10C12.5 7.5 8 7.5 8 10M12.5 10C12.5 7.5 17 7.5 17 10V15" stroke="currentColor" stroke-width="1.5" stroke-linecap="round" stroke-linejoin="round"></path>
    <path d="M18 3.34615C18 2.57692 18.7751 2 19.5 2C20.2249 2 21 2.38462 21 3.34615C21 4.88462 18 7 18 7H21" stroke="currentColor" stroke-width="1.5" stroke-linecap="round" stroke-linejoin="round"></path>
  </symbol>
  <symbol fill="none" xmlns="http://www.w3.org/2000/svg" viewBox="0 0 24 24" id="image">
    <path d="M4.05882 21H19.9412C20.5259 21 21 20.5259 21 19.9412M4.05882 21C3.47405 21 3 20.5259 3 19.9412V4.05882C3 3.47405 3.47405 3 4.05882 3H19.9412C20.5259 3 21 3.47405 21 4.05882M4.05882 21L15.3732 9.82752C15.7874 9.41847 16.4542 9.42057 16.8658 9.83223L21 13.9664M21 19.9412V4.05882M21 19.9412V13.9664M21 4.05882V13.9664" stroke="currentColor" stroke-width="1.5"></path>
    <circle cx="7.5" cy="7.5" r="1.5" fill="currentColor"></circle>
  </symbol>
  <symbol fill="none" xmlns="http://www.w3.org/2000/svg" viewBox="0 0 24 24" id="location-pin">
    <path d="M12 21C15.5 17.4 19 14.1764 19 10.2C19 6.22355 15.866 3 12 3C8.13401 3 5 6.22355 5 10.2C5 14.1764 8.5 17.4 12 21Z" stroke="currentColor" stroke-width="1.5" stroke-linecap="round" stroke-linejoin="round"></path>
    <path d="M12 12C13.1046 12 14 11.1046 14 10C14 8.89543 13.1046 8 12 8C10.8954 8 10 8.89543 10 10C10 11.1046 10.8954 12 12 12Z" stroke="currentColor" stroke-width="1.5" stroke-linecap="round" stroke-linejoin="round"></path>
  </symbol>

  <symbol fill="none" xmlns="http://www.w3.org/2000/svg" viewBox="0 0 24 24" id="mail">
    <path d="M3.02878 8L8.48356 11.645C9.76421 12.4963 10.4045 12.9219 11.0964 13.0873C11.7078 13.2335 12.3451 13.2335 12.9565 13.0873C13.6483 12.9219 14.2887 12.4963 15.5693 11.645L20.9736 8.04005M7.8 19H16.2C17.8802 19 18.7202 19 19.362 18.673C19.9265 18.3854 20.3854 17.9265 20.673 17.362C21 16.7202 21 15.8802 21 14.2V9.8C21 8.11984 21 7.27976 20.673 6.63803C20.3854 6.07354 19.9265 5.6146 19.362 5.32698C18.7202 5 17.8802 5 16.2 5H7.8C6.11984 5 5.27976 5 4.63803 5.32698C4.07354 5.6146 3.6146 6.07354 3.32698 6.63803C3 7.27976 3 8.11984 3 9.8V14.2C3 15.8802 3 16.7202 3.32698 17.362C3.6146 17.9265 4.07354 18.3854 4.63803 18.673C5.27976 19 6.11984 19 7.8 19Z" stroke="currentColor" stroke-width="1.5" stroke-linecap="round" stroke-linejoin="round"></path>
  </symbol>
  <symbol fill="none" xmlns="http://www.w3.org/2000/svg" viewBox="0 0 24 24" id="material">
    <path d="M9 20V17M9 20C9 21.1046 8.10457 22 7 22H4C2.89543 22 2 21.1046 2 20V17C2 15.8954 2.89543 15 4 15H7M9 20C9 21.1046 9.89543 22 11 22H14C14.5973 22 15.1335 21.7381 15.5 21.3229M7 15C8.10457 15 9 15.8954 9 17M7 15H10C10.5973 15 11.1335 14.7381 11.5 14.3229M7 15C5.89543 15 5 14.1046 5 13V10C5 9.4442 5.22671 8.94136 5.59271 8.5789M9 17C9 16.4442 9.22671 15.9414 9.59271 15.5789C9.95408 15.221 10.4512 15 11 15H14C15.1046 15 16 15.8954 16 17V20C16 20.5072 15.8112 20.9703 15.5 21.3229M5.8548 8.36012C6.17919 8.13316 6.57405 8 7 8H10C11.1046 8 12 8.89543 12 10V13C12 13.5072 11.8112 13.9703 11.5 14.3229M5.8548 8.36012C5.76126 8.42556 5.67358 8.4988 5.59271 8.5789M5.8548 8.36012L5.59271 8.5789M5.8548 8.36012L11.6771 3.5C12.0297 3.18882 12.4928 3 13 3H16C17.1046 3 18 3.89543 18 5V8C18 8.59735 17.7381 9.13353 17.3229 9.5L11.5 14.3229M17 10H20C21.1046 10 22 10.8954 22 12V15C22 15.5973 21.7381 16.1335 21.3229 16.5L15.5 21.3229" stroke="currentColor" stroke-width="1.5"></path>
  </symbol>

  <symbol fill="none" xmlns="http://www.w3.org/2000/svg" viewBox="0 0 24 24" id="menu">
    <path d="M4 6H20M4 12H20M4 18H20" stroke="currentColor" stroke-width="1.5" stroke-linecap="round" stroke-linejoin="round"></path>
  </symbol>

  <symbol fill="none" xmlns="http://www.w3.org/2000/svg" viewBox="0 0 24 24" id="perimetr">
    <path d="M4 3L2 4.71429M4 3L6 4.71429M4 3V15M4 15L2 13.2857M4 15L6 13.2857M21 20L19.2857 18M21 20L19.2857 22M21 20H9M9 20L10.7143 18M9 20L10.7143 22M11 15H19C20.1046 15 21 14.1046 21 13V5C21 3.89543 20.1046 3 19 3H11C9.89543 3 9 3.89543 9 5V13C9 14.1046 9.89543 15 11 15Z" stroke="currentColor" stroke-width="1.5" stroke-linecap="round" stroke-linejoin="round"></path>
  </symbol>

  <symbol fill="none" xmlns="http://www.w3.org/2000/svg" viewBox="0 0 24 24" id="phone">
    <path d="M3 5.5C3 14.0604 9.93959 21 18.5 21C18.8862 21 19.2691 20.9859 19.6483 20.9581C20.0834 20.9262 20.3009 20.9103 20.499 20.7963C20.663 20.7019 20.8185 20.5345 20.9007 20.364C21 20.1582 21 19.9181 21 19.438V16.6207C21 16.2169 21 16.015 20.9335 15.842C20.8749 15.6891 20.7795 15.553 20.6559 15.4456C20.516 15.324 20.3262 15.255 19.9468 15.117L16.74 13.9509C16.2985 13.7904 16.0777 13.7101 15.8683 13.7237C15.6836 13.7357 15.5059 13.7988 15.3549 13.9058C15.1837 14.0271 15.0629 14.2285 14.8212 14.6314L14 16C11.3501 14.7999 9.2019 12.6489 8 10L9.36863 9.17882C9.77145 8.93713 9.97286 8.81628 10.0942 8.64506C10.2012 8.49408 10.2643 8.31637 10.2763 8.1317C10.2899 7.92227 10.2096 7.70153 10.0491 7.26005L8.88299 4.05321C8.745 3.67376 8.67601 3.48403 8.55442 3.3441C8.44701 3.22049 8.31089 3.12515 8.15802 3.06645C7.98496 3 7.78308 3 7.37932 3H4.56201C4.08188 3 3.84181 3 3.63598 3.09925C3.4655 3.18146 3.29814 3.33701 3.2037 3.50103C3.08968 3.69907 3.07375 3.91662 3.04189 4.35173C3.01413 4.73086 3 5.11378 3 5.5Z" stroke="currentColor" stroke-width="1.5" stroke-linecap="round" stroke-linejoin="round"></path>
  </symbol>

  <symbol fill="none" xmlns="http://www.w3.org/2000/svg" viewBox="0 0 24 24" id="arrow-right">
    <path d="M10 7V17L15 12L10 7Z" fill="currentColor"></path>
  </symbol>

  <symbol fill="none" xmlns="http://www.w3.org/2000/svg" viewBox="0 0 24 24" id="shevron-down">
    <path d="M7 10L12 15L17 10" stroke="currentColor" stroke-width="1.5" stroke-linecap="round" stroke-linejoin="round"></path>
  </symbol>
  <symbol fill="none" xmlns="http://www.w3.org/2000/svg" viewBox="0 0 24 24" id="shevron-left">
    <path d="M14 7L9 12L14 17" stroke="currentColor" stroke-width="1.5" stroke-linecap="round" stroke-linejoin="round"></path>
  </symbol>
  <symbol fill="none" xmlns="http://www.w3.org/2000/svg" viewBox="0 0 24 24" id="shevron-left-large">
    <path d="M14 6L8 12L14 18" stroke="currentColor" stroke-width="1.5" stroke-linecap="round" stroke-linejoin="round"></path>
  </symbol>
  <symbol fill="none" xmlns="http://www.w3.org/2000/svg" viewBox="0 0 24 24" id="shevron-right">
    <path d="M10 7L15 12L10 17" stroke="currentColor" stroke-width="1.5" stroke-linecap="round" stroke-linejoin="round"></path>
  </symbol>
  <symbol fill="none" xmlns="http://www.w3.org/2000/svg" viewBox="0 0 24 24" id="shevron-right-large">
    <path d="M10 6L16 12L10 18" stroke="currentColor" stroke-width="1.5" stroke-linecap="round" stroke-linejoin="round"></path>
  </symbol>
  <symbol fill="none" xmlns="http://www.w3.org/2000/svg" viewBox="0 0 24 24" id="shevron-up">
    <path d="M7 14L12 9L17 14" stroke="currentColor" stroke-width="1.5" stroke-linecap="round" stroke-linejoin="round"></path>
  </symbol>
  <symbol fill="none" xmlns="http://www.w3.org/2000/svg" viewBox="0 0 24 24" id="stairs">
    <path d="M7 21H18C19.1046 21 20 20.1046 20 19V11M7 21H6C4.89543 21 4 20.1046 4 19V9.1085C4 8.41892 4.35524 7.77798 4.94 7.4125L10.94 3.6625C11.5885 3.25716 12.4115 3.25716 13.06 3.6625L19.06 7.4125C19.6448 7.77798 20 8.41892 20 9.1085V11M7 21V17H10V14H13V11H20" stroke="currentColor" stroke-width="1.5"></path>
  </symbol>
  <symbol fill="none" xmlns="http://www.w3.org/2000/svg" viewBox="0 0 32 32" id="vk">
    <path fill-rule="evenodd" clip-rule="evenodd" d="M4.93095 0H27.069C29.7922 0 32 2.20768 32 4.93095V27.069C32 29.7922 29.7922 32 27.069 32H4.93095C2.20768 32 0 29.7922 0 27.069V4.93095C0 2.20768 2.20768 0 4.93095 0Z" fill="currentColor"></path>
    <path fill-rule="evenodd" clip-rule="evenodd" d="M15.7315 22.401H17.0405C17.0405 22.401 17.4358 22.3574 17.6379 22.14C17.8237 21.9401 17.8177 21.565 17.8177 21.565C17.8177 21.565 17.7921 19.8086 18.6072 19.5499C19.4109 19.295 20.4428 21.2474 21.5365 21.9982C21.7395 22.1377 21.9306 22.2354 22.1034 22.3034C22.666 22.5251 23.2963 22.4376 23.9009 22.4292L25.9167 22.401C25.9167 22.401 27.4465 22.3066 26.7211 21.1037C26.6617 21.0055 26.2985 20.214 24.5465 18.5878C22.7125 16.8857 22.9584 17.161 25.1673 14.2168C26.5126 12.4238 27.0504 11.3292 26.8823 10.8604C26.7222 10.4138 25.7327 10.5318 25.7327 10.5318L22.4398 10.5521C22.4398 10.5521 22.1955 10.5189 22.0146 10.6271C21.8376 10.733 21.724 10.9804 21.724 10.9804C21.724 10.9804 21.2027 12.3678 20.5078 13.5479C19.0415 16.0377 18.4552 16.1695 18.2155 16.0146C17.6579 15.6543 17.7972 14.5672 17.7972 13.7948C17.7972 11.3818 18.1632 10.3757 17.0845 10.1153C16.7266 10.029 16.4629 9.97181 15.5475 9.96248C14.3725 9.95053 13.3782 9.96611 12.8151 10.2419C12.4405 10.4254 12.1515 10.8341 12.3276 10.8576C12.5453 10.8866 13.0381 10.9907 13.2993 11.3462C13.6369 11.8054 13.6251 12.8363 13.6251 12.8363C13.6251 12.8363 13.819 15.6767 13.1722 16.0294C12.7284 16.2714 12.1195 15.7774 10.8123 13.5185C10.1426 12.3615 9.63678 11.0824 9.63678 11.0824C9.63678 11.0824 9.53939 10.8434 9.36541 10.7154C9.07067 10.4989 8.67574 10.5125 8.31002 10.5149L5.73039 10.5318C5.73039 10.5318 5.26076 10.5449 5.08817 10.7491C4.93463 10.931 5.07591 11.3066 5.07591 11.3066C5.07591 11.3066 7.52558 17.038 10.2996 19.9263C12.8434 22.5748 15.7315 22.401 15.7315 22.401Z" fill="currentColor"></path>
  </symbol>
</svg>