<svg width="24" height="24" viewBox="0 0 24 24" fill="none" xmlns="http://www.w3.org/2000/svg">
<path d="M4 3L2 5M4 3L6 5M4 3V18C4 19.1046 4.89543 20 6 20H21M21 20L19 18M21 20L19 22" stroke="#282828" stroke-width="1.5" stroke-linecap="round" stroke-linejoin="round"/>
<path d="M8 15V10M8 8V10M12.5 15L12.5 10M12.5 10C12.5 7.5 8 7.5 8 10M12.5 10C12.5 7.5 17 7.5 17 10V15" stroke="#282828" stroke-width="1.5" stroke-linecap="round" stroke-linejoin="round"/>
<path d="M18 3.34615C18 2.57692 18.7751 2 19.5 2C20.2249 2 21 2.38462 21 3.34615C21 4.88462 18 7 18 7H21" stroke="#282828" stroke-width="1.5" stroke-linecap="round" stroke-linejoin="round"/>
</svg>
