<svg width="24" height="24" viewBox="0 0 24 24" fill="none" xmlns="http://www.w3.org/2000/svg">
<path d="M7.64062 2.24976C7.90464 2.2524 8.17639 2.26995 8.42676 2.36597C8.69415 2.46864 8.9322 2.63613 9.12012 2.85229C9.35485 3.12244 9.47116 3.47561 9.58789 3.79663L10.7539 7.00366C10.8303 7.2138 10.9025 7.41027 10.9502 7.57983C11.0004 7.75844 11.0389 7.95797 11.0244 8.18042C11.0033 8.50349 10.8933 8.81472 10.7061 9.07886C10.577 9.2608 10.4212 9.39072 10.2695 9.4978C10.1256 9.59943 9.94668 9.70695 9.75488 9.82202L8.97852 10.2869C10.0405 12.2992 11.7 13.9603 13.7119 15.0212L14.1777 14.2449C14.2928 14.053 14.4003 13.8742 14.502 13.7302C14.609 13.5786 14.739 13.4227 14.9209 13.2937C15.1849 13.1065 15.4964 12.9965 15.8193 12.9753C16.0417 12.9609 16.2414 12.9994 16.4199 13.0496C16.5895 13.0973 16.786 13.1694 16.9961 13.2458L20.2031 14.4119C20.5241 14.5286 20.8773 14.645 21.1475 14.8796C21.3637 15.0675 21.5311 15.3056 21.6338 15.573C21.7299 15.8234 21.7473 16.0951 21.75 16.3591V19.7488C21.746 20.065 21.7196 20.3917 21.5762 20.6892C21.4284 20.9956 21.1678 21.2763 20.873 21.446C20.4939 21.6642 20.0756 21.6785 19.7031 21.7058C19.3059 21.7349 18.9044 21.7498 18.5 21.7498C9.52554 21.7496 2.25 14.4743 2.25 5.49976C2.25001 5.09532 2.26485 4.6939 2.29395 4.29663C2.32121 3.92414 2.33546 3.50585 2.55371 3.12671C2.72341 2.83199 3.00423 2.57134 3.31055 2.42358C3.60798 2.28022 3.93489 2.25378 4.25098 2.24976H7.64062ZM4.5625 3.74976C4.31018 3.74976 4.1662 3.75045 4.05957 3.75952C4.01207 3.76358 3.98578 3.76813 3.97266 3.77124C3.96742 3.7725 3.9642 3.77373 3.96289 3.77417H3.96191C3.9274 3.7909 3.8727 3.84157 3.85352 3.87476C3.8519 3.87756 3.85035 3.88121 3.84766 3.8894C3.84435 3.89949 3.83866 3.9209 3.83203 3.96069C3.8168 4.05241 3.80688 4.176 3.79004 4.40601C3.76362 4.76685 3.75001 5.13191 3.75 5.49976C3.75 13.6458 10.354 20.2496 18.5 20.2498C18.8678 20.2498 19.2329 20.2361 19.5938 20.2097C19.8236 20.1929 19.9473 20.1829 20.0391 20.1677C20.0786 20.1611 20.1001 20.1554 20.1104 20.1521C20.1185 20.1494 20.1222 20.1478 20.125 20.1462C20.1582 20.127 20.2089 20.0724 20.2256 20.0378V20.0369C20.2261 20.0355 20.2273 20.0324 20.2285 20.0271C20.2316 20.0139 20.2362 19.9877 20.2402 19.9402C20.2493 19.8335 20.25 19.6896 20.25 19.4373V16.6208C20.25 16.4092 20.2494 16.2864 20.2432 16.1951C20.2394 16.1402 20.235 16.1167 20.2334 16.1101C20.2187 16.0722 20.1947 16.0381 20.1641 16.0115C20.1573 16.0071 20.136 15.9947 20.0879 15.9734C20.0042 15.9364 19.8892 15.8943 19.6904 15.822L16.4834 14.655C16.2527 14.5711 16.117 14.523 16.0137 14.4939C15.9207 14.4678 15.9044 14.4722 15.917 14.4714C15.8711 14.4745 15.8266 14.4908 15.7891 14.5173C15.7823 14.524 15.7631 14.5451 15.7275 14.5955C15.6656 14.6832 15.5904 14.8064 15.4639 15.0173L14.6436 16.3855C14.4476 16.7121 14.0374 16.8405 13.6904 16.6833C10.8746 15.408 8.59413 13.1232 7.31738 10.3093C7.16027 9.96246 7.28775 9.55221 7.61426 9.3562L8.98242 8.53589C9.19324 8.4094 9.31654 8.33418 9.4043 8.27222C9.45464 8.23666 9.4758 8.21749 9.48242 8.21069C9.50905 8.17301 9.52532 8.12881 9.52832 8.08276C9.52716 8.07284 9.52225 8.04436 9.50586 7.98608C9.47676 7.88275 9.42862 7.74706 9.34473 7.51636L8.17773 4.30933C8.10543 4.1105 8.0634 3.99558 8.02637 3.91187C8.00441 3.86227 7.99222 3.84166 7.98828 3.83569C7.96157 3.80507 7.92756 3.78099 7.88965 3.76636C7.88217 3.76464 7.858 3.76021 7.80469 3.75659C7.71333 3.75042 7.59045 3.74976 7.37891 3.74976H4.5625Z" fill="#686868"/>
</svg>
