<svg width="32" height="32" viewBox="0 0 32 32" fill="none" xmlns="http://www.w3.org/2000/svg">
<path fill-rule="evenodd" clip-rule="evenodd" d="M4.93095 0H27.069C29.7922 0 32 2.20768 32 4.93095V27.069C32 29.7922 29.7922 32 27.069 32H4.93095C2.20768 32 0 29.7922 0 27.069V4.93095C0 2.20768 2.20768 0 4.93095 0Z" fill="#4C75A3"/>
<path fill-rule="evenodd" clip-rule="evenodd" d="M15.7315 22.401H17.0405C17.0405 22.401 17.4358 22.3574 17.6379 22.14C17.8237 21.9401 17.8177 21.565 17.8177 21.565C17.8177 21.565 17.7921 19.8086 18.6072 19.5499C19.4109 19.295 20.4428 21.2474 21.5365 21.9982C21.7395 22.1377 21.9306 22.2354 22.1034 22.3034C22.666 22.5251 23.2963 22.4376 23.9009 22.4292L25.9167 22.401C25.9167 22.401 27.4465 22.3066 26.7211 21.1037C26.6617 21.0055 26.2985 20.214 24.5465 18.5878C22.7125 16.8857 22.9584 17.161 25.1673 14.2168C26.5126 12.4238 27.0504 11.3292 26.8823 10.8604C26.7222 10.4138 25.7327 10.5318 25.7327 10.5318L22.4398 10.5521C22.4398 10.5521 22.1955 10.5189 22.0146 10.6271C21.8376 10.733 21.724 10.9804 21.724 10.9804C21.724 10.9804 21.2027 12.3678 20.5078 13.5479C19.0415 16.0377 18.4552 16.1695 18.2155 16.0146C17.6579 15.6543 17.7972 14.5672 17.7972 13.7948C17.7972 11.3818 18.1632 10.3757 17.0845 10.1153C16.7266 10.029 16.4629 9.97181 15.5475 9.96248C14.3725 9.95053 13.3782 9.96611 12.8151 10.2419C12.4405 10.4254 12.1515 10.8341 12.3276 10.8576C12.5453 10.8866 13.0381 10.9907 13.2993 11.3462C13.6369 11.8054 13.6251 12.8363 13.6251 12.8363C13.6251 12.8363 13.819 15.6767 13.1722 16.0294C12.7284 16.2714 12.1195 15.7774 10.8123 13.5185C10.1426 12.3615 9.63678 11.0824 9.63678 11.0824C9.63678 11.0824 9.53939 10.8434 9.36541 10.7154C9.07067 10.4989 8.67574 10.5125 8.31002 10.5149L5.73039 10.5318C5.73039 10.5318 5.26076 10.5449 5.08817 10.7491C4.93463 10.931 5.07591 11.3066 5.07591 11.3066C5.07591 11.3066 7.52558 17.038 10.2996 19.9263C12.8434 22.5748 15.7315 22.401 15.7315 22.401Z" fill="white"/>
</svg>
